{"glyphs":{"0":{"ha":840,"x_min":38,"x_max":803,"o":"m 696 161 l 696 161 q 775 331 749 238 q 801 521 801 424 q 776 714 803 619 q 696 885 749 808 q 574 1002 644 958 q 421 1046 503 1046 q 268 1002 339 1046 q 144 885 197 958 q 65 715 92 808 q 39 525 39 622 q 65 332 38 426 q 144 161 92 238 q 268 44 197 88 q 421 0 339 0 q 574 44 503 0 q 696 161 644 88 m 603 226 l 603 226 q 520 145 567 175 q 421 115 474 115 q 322 145 369 115 q 238 226 274 175 q 174 365 194 288 q 153 522 153 442 q 153 531 153 526 q 153 539 153 535 q 176 688 154 614 q 238 819 197 761 q 322 901 274 871 q 421 931 369 931 q 520 901 474 931 q 603 819 567 871 q 667 681 646 758 q 688 524 688 604 q 688 515 688 519 q 688 507 688 511 q 665 358 686 432 q 603 226 643 285 "},"1":{"ha":322,"x_min":15,"x_max":304,"o":"m 304 0 l 304 0 l 304 1057 l 15 792 l 92 708 l 189 797 l 189 0 l 304 0 "},"2":{"ha":654,"x_min":29,"x_max":625,"o":"m 594 0 l 594 0 l 594 115 l 267 115 q 409 296 338 206 q 553 476 481 386 q 606 576 589 522 q 624 686 624 631 q 599 823 625 756 q 519 942 572 890 q 403 1019 468 993 q 271 1046 339 1044 q 257 1046 264 1046 q 243 1044 250 1046 q 162 1028 203 1042 q 85 993 121 1015 l 144 896 q 204 922 172 914 q 268 931 236 931 q 276 931 272 931 q 283 931 279 931 q 366 910 325 928 q 439 860 407 892 q 489 786 471 828 q 510 701 507 744 q 510 694 510 697 q 510 688 510 690 q 498 614 510 650 q 463 547 486 578 q 246 274 354 411 q 29 0 138 138 l 594 0 "},"3":{"ha":554,"x_min":25,"x_max":529,"o":"m 529 400 l 529 400 q 456 631 529 528 q 264 778 383 735 l 476 1046 l 25 1046 l 25 931 l 240 931 q 194 872 217 901 q 147 814 171 843 q 101 754 124 783 q 54 696 78 725 q 80 693 67 694 q 107 690 93 692 q 133 688 119 689 q 158 685 146 686 q 342 592 269 674 q 414 400 414 511 q 329 200 414 285 q 128 115 244 115 q 110 115 119 115 q 92 115 101 115 q 73 115 82 115 q 56 115 64 115 l 56 0 q 73 0 64 0 q 92 0 82 0 q 110 0 101 0 q 128 0 119 0 q 410 119 292 0 q 529 400 529 238 "},"4":{"ha":697,"x_min":32,"x_max":665,"o":"m 665 246 l 665 246 l 665 360 l 607 360 l 607 544 l 493 544 l 493 360 l 217 360 l 561 1046 l 433 1046 l 32 246 l 493 246 l 493 0 l 607 0 l 607 246 l 665 246 "},"5":{"ha":565,"x_min":26,"x_max":540,"o":"m 540 400 l 540 400 q 508 568 540 496 q 419 690 475 640 q 303 760 368 735 q 165 796 239 786 l 194 931 l 432 931 l 432 1046 l 101 1046 q 65 867 83 957 q 26 688 46 778 q 43 688 35 688 q 61 688 51 688 q 78 687 69 688 q 94 686 86 686 q 233 665 168 685 q 343 604 297 644 q 404 520 382 571 q 426 400 426 469 q 341 200 426 285 q 140 115 256 115 q 122 115 131 115 q 104 115 113 115 q 85 115 94 115 q 67 115 76 115 l 67 0 q 85 0 76 0 q 104 0 94 0 q 122 0 113 0 q 140 0 131 0 q 422 119 303 0 q 540 400 540 238 "},"6":{"ha":881,"x_min":40,"x_max":840,"o":"m 840 400 l 840 400 q 723 683 840 565 q 440 801 606 801 q 367 794 403 801 q 297 775 331 788 q 456 890 365 849 q 646 931 546 931 l 646 1046 q 212 849 383 1046 q 40 401 40 653 q 158 119 40 238 q 440 0 276 0 q 723 118 606 0 q 840 400 840 236 m 726 400 l 726 400 q 642 199 726 282 q 440 115 558 115 q 238 201 322 115 q 154 404 153 286 q 240 603 157 521 q 440 686 324 686 q 642 603 558 686 q 726 400 726 519 "},"7":{"ha":585,"x_min":26,"x_max":557,"o":"m 557 1046 l 557 1046 l 26 1046 l 26 931 l 396 931 l 71 -1 l 192 0 q 280 251 236 126 q 368 501 324 376 q 379 535 374 518 q 392 569 385 551 q 474 806 432 688 q 557 1046 515 925 "},"8":{"ha":881,"x_min":40,"x_max":840,"o":"m 840 400 l 840 400 q 771 626 840 525 q 592 771 701 726 q 609 806 603 788 q 618 842 615 824 q 619 853 618 847 q 619 865 619 860 q 570 990 619 935 q 440 1046 521 1046 q 310 990 360 1046 q 261 864 261 935 q 262 845 261 854 q 265 826 263 836 q 274 798 268 813 q 288 771 279 783 q 108 624 176 725 q 40 400 40 522 q 158 118 40 236 q 440 0 275 0 q 723 118 606 0 q 840 400 840 236 m 726 400 l 726 400 q 642 199 726 282 q 440 115 558 115 q 238 199 322 115 q 154 400 154 282 q 238 603 154 519 q 440 686 322 686 q 642 603 558 686 q 726 400 726 519 m 506 865 l 506 865 q 487 820 506 839 q 440 801 468 801 q 394 820 414 801 q 375 865 375 839 q 394 912 375 893 q 440 931 414 931 q 487 912 468 931 q 506 865 506 893 "},"9":{"ha":881,"x_min":40,"x_max":840,"o":"m 840 644 l 840 644 q 723 928 840 810 q 440 1046 606 1046 q 158 928 275 1046 q 40 646 40 811 q 158 363 40 481 q 440 246 275 246 q 514 252 478 246 q 582 271 550 258 q 425 157 515 199 q 235 115 335 115 l 235 0 q 669 197 497 0 q 840 644 840 393 m 726 642 l 726 642 q 641 442 725 525 q 440 360 557 360 q 238 444 322 360 q 154 646 154 528 q 238 847 154 764 q 440 931 322 931 q 644 846 560 931 q 726 642 728 761 "}," ":{"ha":417,"x_min":0,"x_max":0,"o":""},"!":{"ha":168,"x_min":8,"x_max":154,"o":"m 154 57 l 154 57 q 133 109 154 88 q 81 131 111 131 q 29 109 50 131 q 8 57 8 88 q 29 6 8 26 q 81 -15 50 -15 q 133 6 111 -15 q 154 57 154 26 m 139 153 l 139 153 l 139 1043 l 24 1043 l 24 153 l 139 153 "},"\"":{"ha":325,"x_min":19,"x_max":319,"o":"m 160 958 l 160 958 q 163 966 161 963 q 165 974 164 969 q 166 981 165 978 q 167 989 167 985 q 156 1028 167 1010 q 125 1056 144 1046 q 110 1061 118 1060 q 93 1063 101 1063 q 56 1052 74 1064 q 28 1021 38 1040 q 22 1006 24 1014 q 21 989 21 997 q 31 951 19 969 q 61 924 42 933 q 74 919 68 921 q 85 917 79 918 l 61 865 l 106 844 q 119 873 113 858 q 133 901 126 888 q 146 930 139 915 q 160 958 153 944 m 313 958 l 313 958 q 315 966 314 963 q 318 974 317 969 q 319 981 318 978 q 319 989 319 985 q 308 1028 319 1010 q 278 1056 297 1046 q 263 1061 271 1060 q 246 1063 254 1063 q 208 1052 226 1064 q 181 1021 190 1040 q 175 1006 176 1014 q 174 989 174 997 q 183 951 172 969 q 214 924 194 933 q 226 919 221 921 q 238 917 232 918 l 214 865 l 258 844 q 272 873 265 858 q 286 901 279 888 q 299 930 292 915 q 313 958 306 944 "},"#":{"ha":694,"x_min":0,"x_max":0,"o":""},"$":{"ha":535,"x_min":24,"x_max":510,"o":"m 510 406 l 510 406 q 489 500 510 461 q 432 569 468 539 q 380 605 408 589 q 319 636 351 621 q 301 644 310 640 q 282 653 292 649 q 244 670 263 661 q 214 689 225 679 q 202 703 206 696 q 199 719 199 711 q 199 723 199 721 q 199 726 199 725 q 219 762 201 746 q 258 778 236 778 q 296 765 279 778 q 317 732 313 751 l 428 758 q 393 828 418 797 q 332 875 368 858 l 332 1046 l 217 1046 l 217 888 q 122 826 160 874 q 83 717 83 779 q 99 649 83 678 q 142 600 115 621 q 194 567 165 581 q 251 540 222 553 q 308 514 279 528 q 360 481 336 500 q 388 445 379 465 q 396 403 396 425 q 395 392 396 397 q 394 382 394 388 q 381 343 390 363 q 356 308 371 324 q 318 282 339 292 q 276 269 297 272 q 268 268 272 268 q 260 268 264 268 q 183 291 219 268 q 131 356 147 314 l 24 313 q 101 210 49 251 q 217 157 153 168 l 217 0 l 332 0 l 332 165 q 460 256 411 189 q 510 406 510 324 "},"%":{"ha":694,"x_min":0,"x_max":0,"o":""},"&":{"ha":889,"x_min":40,"x_max":849,"o":"m 849 465 l 849 465 l 849 579 q 565 499 696 579 q 365 283 435 419 l 467 232 q 531 324 493 282 q 617 397 569 367 q 620 374 619 386 q 621 351 621 363 q 555 187 622 258 q 388 115 488 115 q 223 183 292 115 q 154 349 154 251 q 210 499 154 433 q 350 574 265 564 l 347 688 q 270 726 300 690 q 240 806 240 761 q 277 894 240 858 q 365 931 314 931 q 418 919 393 931 q 461 886 443 907 l 550 958 q 467 1023 515 1000 q 365 1046 418 1046 q 197 975 267 1046 q 126 806 126 904 q 144 714 126 758 q 197 636 163 669 q 83 513 125 589 q 40 349 40 436 q 142 103 40 206 q 388 0 244 0 q 634 103 532 0 q 736 349 736 206 q 735 373 736 361 q 732 397 735 385 q 728 422 731 410 q 721 446 725 433 q 783 460 751 456 q 849 465 815 465 "},"'":{"ha":182,"x_min":19,"x_max":167,"o":"m 160 958 l 160 958 q 163 966 161 963 q 165 974 164 969 q 166 981 165 978 q 167 989 167 985 q 156 1028 167 1010 q 125 1056 144 1046 q 110 1061 118 1060 q 93 1063 101 1063 q 56 1052 74 1064 q 28 1021 38 1040 q 22 1006 24 1014 q 21 989 21 997 q 31 951 19 969 q 61 924 42 933 q 74 919 68 921 q 85 917 79 918 l 61 865 l 106 844 q 119 873 113 858 q 133 901 126 888 q 146 930 139 915 q 160 958 153 944 "},"(":{"ha":694,"x_min":0,"x_max":0,"o":""},")":{"ha":694,"x_min":0,"x_max":0,"o":""},"*":{"ha":329,"x_min":28,"x_max":307,"o":"m 307 890 l 307 890 l 218 942 l 306 992 l 281 1036 l 194 986 l 193 1088 l 143 1088 l 143 986 l 54 1038 l 28 993 l 118 942 l 29 892 l 54 847 l 142 897 l 143 796 l 193 797 l 194 896 l 281 846 l 307 890 "},"+":{"ha":694,"x_min":0,"x_max":0,"o":""},",":{"ha":182,"x_min":19,"x_max":167,"o":"m 160 28 l 160 28 q 163 35 161 32 q 165 43 164 39 q 166 51 165 47 q 167 58 167 54 q 156 97 167 79 q 125 125 144 115 q 110 131 118 129 q 93 132 101 132 q 56 122 74 133 q 28 90 38 110 q 22 75 24 83 q 21 58 21 67 q 31 21 19 39 q 61 -6 42 3 q 74 -10 68 -8 q 85 -14 79 -11 l 61 -65 l 106 -85 q 119 -56 113 -71 q 133 -28 126 -42 q 146 0 139 -14 q 160 28 153 14 "},"-":{"ha":393,"x_min":-1,"x_max":399,"o":"m 399 426 l 399 426 l 399 542 l -1 542 l -1 426 l 399 426 "},".":{"ha":168,"x_min":8,"x_max":154,"o":"m 154 57 l 154 57 q 133 109 154 88 q 81 131 111 131 q 29 109 50 131 q 8 57 8 88 q 29 6 8 26 q 81 -15 50 -15 q 133 6 111 -15 q 154 57 154 26 "},"/":{"ha":694,"x_min":0,"x_max":0,"o":""},":":{"ha":168,"x_min":8,"x_max":154,"o":"m 154 57 l 154 57 q 133 109 154 88 q 81 131 111 131 q 29 109 50 131 q 8 57 8 88 q 29 6 8 26 q 81 -15 50 -15 q 133 6 111 -15 q 154 57 154 26 m 154 279 l 154 279 q 133 331 154 310 q 81 353 111 353 q 29 331 50 353 q 8 279 8 310 q 29 227 8 249 q 81 206 50 206 q 133 227 111 206 q 154 279 154 249 "},";":{"ha":168,"x_min":8,"x_max":167,"o":"m 160 28 l 160 28 q 163 35 161 32 q 165 43 164 39 q 166 51 165 47 q 167 58 167 54 q 156 97 167 79 q 125 125 144 115 q 110 131 118 129 q 93 132 101 132 q 56 122 74 133 q 28 90 38 110 q 22 75 24 83 q 21 58 21 67 q 31 21 19 39 q 61 -6 42 3 q 74 -10 68 -8 q 85 -14 79 -11 l 61 -65 l 106 -85 q 119 -56 113 -71 q 133 -28 126 -42 q 146 0 139 -14 q 160 28 153 14 m 154 279 l 154 279 q 133 331 154 310 q 81 353 111 353 q 29 331 50 353 q 8 279 8 310 q 29 227 8 249 q 81 206 50 206 q 133 227 111 206 q 154 279 154 249 "},"<":{"ha":694,"x_min":0,"x_max":0,"o":""},"=":{"ha":694,"x_min":0,"x_max":0,"o":""},">":{"ha":694,"x_min":0,"x_max":0,"o":""},"?":{"ha":518,"x_min":24,"x_max":494,"o":"m 171 57 l 171 57 q 149 109 171 88 q 97 131 128 131 q 45 109 67 131 q 24 57 24 88 q 45 6 24 26 q 97 -15 67 -15 q 149 6 128 -15 q 171 57 171 26 m 494 646 l 494 646 q 378 927 494 810 q 99 1046 263 1044 q 72 1046 85 1046 q 44 1046 58 1046 l 44 931 l 97 931 q 298 846 215 929 q 381 646 381 763 q 297 444 381 528 q 97 360 214 361 q 83 360 90 360 q 69 360 76 360 q 54 360 61 360 q 40 360 47 360 l 40 153 l 156 153 l 156 250 q 398 385 301 272 q 494 646 494 499 "},"@":{"ha":1199,"x_min":54,"x_max":1143,"o":"m 1143 504 l 1143 504 q 983 887 1143 728 q 599 1046 822 1046 q 214 886 374 1046 q 54 501 54 726 q 214 117 54 276 q 599 -42 374 -42 q 796 -6 701 -42 q 965 99 890 31 q 974 112 972 106 q 978 124 976 118 q 969 145 978 136 q 946 154 960 154 q 935 152 940 154 q 922 144 929 150 q 772 52 856 85 q 599 19 689 19 q 259 161 400 19 q 118 501 118 303 q 259 842 118 700 q 599 983 400 983 q 939 843 797 983 q 1081 504 1081 703 q 1048 357 1081 413 q 968 278 1015 301 q 942 268 956 272 q 914 263 928 264 q 903 261 908 261 q 894 261 899 261 q 888 261 892 261 q 881 261 885 261 q 834 274 857 264 q 793 300 811 283 q 757 352 767 324 q 747 411 747 381 q 752 458 747 435 q 763 504 757 482 q 803 638 782 571 q 844 771 824 704 q 846 775 846 774 q 846 778 846 776 q 837 802 846 792 q 814 813 828 813 q 772 813 793 813 q 728 813 750 813 q 683 810 706 813 q 638 801 660 807 q 426 697 525 776 q 296 510 326 618 q 285 456 289 485 q 281 399 281 428 q 307 275 281 333 q 401 197 333 217 q 413 194 407 196 q 425 192 419 193 q 437 191 431 192 q 449 190 443 190 q 581 237 519 190 q 683 339 643 283 q 688 344 686 342 q 692 350 690 347 q 769 238 711 278 q 896 197 828 199 q 913 198 904 197 q 929 200 921 199 q 963 208 946 203 q 996 221 981 214 q 1100 322 1057 251 q 1143 504 1143 392 m 772 749 l 772 749 q 758 706 765 728 q 744 664 751 685 q 717 578 731 621 q 693 492 704 535 q 650 401 676 444 q 590 326 624 358 q 587 323 589 325 q 583 319 585 321 q 536 285 563 301 q 482 260 510 268 q 463 256 472 257 q 446 254 454 254 q 401 265 422 254 q 364 303 379 276 q 349 339 354 319 q 342 378 343 358 q 342 386 342 382 q 342 394 342 390 q 346 446 342 421 q 357 493 350 471 q 462 644 382 579 q 633 735 542 710 q 681 745 657 742 q 728 749 706 749 q 750 749 739 749 q 772 749 761 749 "},"A":{"ha":836,"x_min":38,"x_max":797,"o":"m 797 0 l 797 0 l 472 1042 l 364 1042 l 154 374 l 57 374 l 57 254 l 118 254 l 38 0 l 158 0 l 238 254 l 599 254 l 678 0 l 797 0 m 561 374 l 561 374 l 275 374 l 418 832 l 561 374 "},"B":{"ha":533,"x_min":24,"x_max":510,"o":"m 392 118 l 392 118 q 474 235 446 171 q 508 364 501 299 q 509 381 508 372 q 510 397 510 389 q 445 618 510 514 q 261 771 381 722 q 283 818 276 794 q 289 865 289 842 q 238 990 289 935 q 110 1046 188 1046 q 88 1046 99 1046 q 67 1046 78 1046 q 45 1046 56 1046 q 24 1046 35 1046 l 24 0 q 45 0 35 0 q 67 0 56 0 q 88 0 78 0 q 110 0 99 0 q 265 32 192 0 q 392 118 338 64 m 396 400 l 396 400 q 322 209 396 290 q 139 117 247 128 l 139 685 q 322 592 247 674 q 396 400 396 510 m 139 807 l 139 807 l 139 925 q 166 900 157 915 q 175 867 175 885 q 167 833 175 849 q 139 807 158 817 "},"C":{"ha":575,"x_min":26,"x_max":549,"o":"m 549 0 l 549 0 l 549 115 q 260 235 381 115 q 140 524 140 356 q 260 811 140 692 q 549 931 381 931 l 549 1046 q 180 892 333 1046 q 26 524 26 739 q 180 153 26 307 q 549 0 333 0 "},"D":{"ha":610,"x_min":29,"x_max":601,"o":"m 601 524 l 601 524 q 451 889 601 736 q 86 1046 300 1042 q 72 1046 79 1046 q 58 1046 65 1046 q 43 1046 50 1046 q 29 1046 36 1046 l 29 0 q 43 0 36 0 q 58 0 50 0 q 72 0 65 0 q 86 0 79 0 q 451 157 300 4 q 601 524 601 310 m 486 524 l 486 524 q 389 258 486 374 q 143 119 292 143 l 143 926 q 389 788 292 903 q 486 524 486 672 "},"E":{"ha":642,"x_min":29,"x_max":613,"o":"m 613 -1 l 613 -1 l 613 115 q 328 238 444 118 q 211 524 211 357 q 211 605 211 564 q 211 686 211 646 l 611 686 l 611 801 l 211 801 l 211 931 l 604 931 l 604 1046 l 96 1046 l 96 801 l 29 801 l 29 686 l 96 686 q 96 605 96 646 q 96 524 96 564 q 248 156 96 310 q 613 -1 400 3 "},"F":{"ha":599,"x_min":28,"x_max":571,"o":"m 571 686 l 571 686 l 571 801 l 215 801 l 215 931 l 558 931 l 558 1046 l 101 1046 l 101 801 l 28 801 l 28 686 l 101 686 l 101 0 l 215 0 l 215 686 l 571 686 "},"G":{"ha":629,"x_min":29,"x_max":601,"o":"m 601 0 l 601 0 l 601 801 l 328 801 l 328 686 l 486 686 l 486 119 q 241 258 339 143 q 143 524 143 374 q 259 808 143 689 q 540 931 375 926 l 540 1046 q 178 888 326 1040 q 29 524 29 735 q 180 157 29 310 q 543 0 331 4 q 573 0 558 0 q 601 0 588 0 "},"H":{"ha":706,"x_min":32,"x_max":674,"o":"m 674 0 l 674 0 l 674 1046 l 558 1046 l 558 801 l 221 801 l 221 1046 l 106 1046 l 106 801 l 32 801 l 32 686 l 106 686 l 106 0 l 221 0 l 221 686 l 558 686 l 558 0 l 674 0 "},"I":{"ha":157,"x_min":21,"x_max":135,"o":"m 135 0 l 135 0 l 135 1046 l 21 1046 l 21 0 l 135 0 "},"J":{"ha":442,"x_min":19,"x_max":422,"o":"m 422 407 l 422 407 q 422 566 422 486 q 422 726 422 646 q 422 887 422 807 q 422 1046 422 967 l 307 1046 q 307 887 307 967 q 307 726 307 807 q 307 566 307 646 q 307 407 307 486 q 223 203 307 288 q 19 115 139 118 l 22 0 q 305 123 188 3 q 422 407 422 243 "},"K":{"ha":667,"x_min":32,"x_max":665,"o":"m 665 0 l 665 0 l 333 846 l 513 1046 l 360 1046 l 146 810 l 146 1046 l 32 1046 l 32 0 l 146 0 l 146 639 l 247 751 l 543 0 l 665 0 "},"L":{"ha":496,"x_min":22,"x_max":474,"o":"m 474 0 l 474 0 l 474 115 l 138 115 l 138 1046 l 22 1046 l 22 0 l 474 0 "},"M":{"ha":708,"x_min":14,"x_max":681,"o":"m 681 0 l 681 0 l 681 1076 l 347 815 l 14 1076 l 14 0 l 128 0 l 128 843 l 347 671 l 567 843 l 567 0 l 681 0 "},"N":{"ha":518,"x_min":14,"x_max":500,"o":"m 500 0 l 500 0 l 500 1046 l 386 1046 l 386 944 q 238 1019 318 993 q 72 1046 157 1044 q 44 1046 58 1046 q 14 1046 29 1046 l 14 0 l 129 0 l 129 926 q 269 883 203 917 q 386 796 335 849 l 386 0 l 500 0 "},"O":{"ha":1083,"x_min":22,"x_max":1067,"o":"m 1067 524 l 1067 524 q 913 892 1067 739 q 544 1046 760 1046 q 176 892 329 1046 q 22 524 22 739 q 176 153 22 307 q 544 0 329 0 q 913 153 760 0 q 1067 524 1067 307 m 953 524 l 953 524 q 833 235 953 356 q 544 115 714 115 q 256 235 376 115 q 136 524 136 356 q 256 811 136 692 q 544 931 376 931 q 833 811 714 931 q 953 524 953 692 "},"P":{"ha":519,"x_min":24,"x_max":510,"o":"m 510 646 l 510 646 q 392 928 510 811 q 110 1046 275 1046 q 88 1046 99 1046 q 67 1046 78 1046 q 45 1046 56 1046 q 24 1046 35 1046 l 24 0 l 139 0 l 139 246 q 403 374 296 257 q 510 646 510 490 m 396 646 l 396 646 q 322 454 396 536 q 139 361 247 372 l 139 929 q 322 838 249 919 q 396 646 396 756 "},"Q":{"ha":1094,"x_min":28,"x_max":1072,"o":"m 1072 524 l 1072 524 q 919 892 1072 739 q 550 1046 765 1046 q 181 892 335 1046 q 28 524 28 739 q 181 153 28 307 q 550 0 335 0 q 689 19 622 0 q 813 72 756 38 q 865 13 840 44 q 907 -56 889 -18 l 1008 -1 q 962 74 988 38 q 906 140 936 110 q 1028 311 983 213 q 1072 524 1072 410 m 958 524 l 958 524 q 921 351 958 431 q 818 215 883 272 q 655 297 743 268 q 472 325 567 325 l 472 211 q 597 195 536 211 q 711 149 657 179 q 633 124 674 132 q 550 115 593 115 q 262 235 382 115 q 142 524 142 356 q 262 811 142 692 q 550 931 382 931 q 839 811 719 931 q 958 524 958 692 "},"R":{"ha":540,"x_min":25,"x_max":522,"o":"m 522 0 l 522 0 l 522 115 q 352 153 432 115 q 217 260 272 192 q 428 403 344 296 q 511 646 511 510 q 393 928 511 811 q 110 1046 275 1046 q 89 1046 100 1046 q 68 1046 78 1046 q 47 1046 57 1046 q 25 1046 36 1046 l 25 0 l 139 0 l 139 174 q 311 47 211 93 q 522 0 411 0 m 396 646 l 396 646 q 322 454 396 536 q 139 361 247 372 l 139 929 q 322 838 249 919 q 396 646 396 756 "},"S":{"ha":442,"x_min":19,"x_max":421,"o":"m 421 333 l 421 333 q 421 339 421 336 q 421 344 421 342 q 394 469 418 408 q 321 572 369 529 q 246 636 283 604 q 171 700 208 668 q 146 735 154 714 q 136 778 138 756 q 135 786 135 782 q 135 794 135 790 q 175 891 135 851 q 272 931 215 931 l 272 1046 q 94 972 168 1046 q 19 794 19 897 q 39 695 19 743 q 97 613 58 647 q 172 549 135 582 q 246 485 210 517 q 288 428 274 461 q 306 358 303 394 q 307 347 307 353 q 307 333 307 340 q 243 180 307 244 q 89 115 179 115 l 89 0 q 324 99 226 0 q 421 333 421 197 "},"T":{"ha":578,"x_min":26,"x_max":551,"o":"m 551 931 l 551 931 l 551 1046 l 26 1046 l 26 931 l 232 931 l 232 0 l 346 0 l 346 931 l 551 931 "},"U":{"ha":596,"x_min":26,"x_max":568,"o":"m 568 271 l 568 271 q 568 659 568 465 q 568 1046 568 853 l 454 1046 l 454 271 q 408 161 454 207 q 297 115 363 115 q 188 161 233 115 q 142 271 142 207 q 142 659 142 465 q 142 1046 142 853 l 26 1046 l 26 271 q 106 80 26 160 q 297 0 186 0 q 489 80 410 0 q 568 271 568 160 "},"V":{"ha":771,"x_min":-1,"x_max":768,"o":"m 768 1046 l 768 1046 l 647 1046 l 383 196 l 119 1046 l -1 1046 l 329 0 l 438 0 l 768 1046 "},"W":{"ha":1033,"x_min":15,"x_max":1019,"o":"m 1019 1046 l 1019 1046 l 900 1046 l 701 228 l 572 681 l 463 681 l 333 228 l 133 1046 l 15 1046 l 276 0 l 388 -1 l 517 456 l 647 -1 l 757 0 l 1019 1046 "},"X":{"ha":828,"x_min":15,"x_max":813,"o":"m 813 0 l 813 0 l 479 574 l 753 1046 l 621 1046 l 414 688 l 206 1046 l 74 1046 l 347 574 l 15 0 l 147 0 l 414 460 l 681 0 l 813 0 "},"Y":{"ha":590,"x_min":4,"x_max":582,"o":"m 582 1046 l 582 1046 l 442 1046 l 293 842 l 144 1046 l 4 1046 l 236 725 l 236 0 l 350 0 l 350 725 l 582 1046 "},"Z":{"ha":642,"x_min":1,"x_max":635,"o":"m 635 1046 l 635 1046 l 94 1046 l 94 931 l 453 931 l 1 0 l 550 0 l 550 115 l 183 115 l 635 1046 "},"[":{"ha":694,"x_min":0,"x_max":0,"o":""},"\\":{"ha":694,"x_min":0,"x_max":0,"o":""},"]":{"ha":694,"x_min":0,"x_max":0,"o":""},"^":{"ha":694,"x_min":0,"x_max":0,"o":""},"_":{"ha":875,"x_min":-1,"x_max":889,"o":"m 889 -60 l 889 -60 l 889 0 l -1 0 l -1 -60 l 889 -60 "},"`":{"ha":243,"x_min":15,"x_max":236,"o":"m 236 1076 l 236 1076 l 24 1114 l 15 1064 l 228 1026 l 236 1076 "},"a":{"ha":678,"x_min":17,"x_max":656,"o":"m 656 0 l 656 0 q 656 523 656 261 q 656 1046 656 785 q 627 1046 642 1046 q 597 1046 613 1046 q 234 889 385 1042 q 83 524 83 736 q 83 441 83 482 q 83 360 83 400 l 17 360 l 17 246 l 83 246 l 83 0 l 199 0 l 199 246 l 542 246 l 542 0 l 656 0 m 542 360 l 542 360 l 199 360 q 199 441 199 400 q 199 524 199 482 q 297 788 199 672 q 542 926 394 903 l 542 360 "},"b":{"ha":650,"x_min":15,"x_max":629,"o":"m 629 644 l 629 644 q 512 927 629 810 q 229 1044 394 1044 q 151 1044 190 1044 q 71 1044 111 1044 l 71 360 l 15 360 l 15 244 l 71 244 l 71 0 q 151 0 111 0 q 229 0 190 0 q 358 56 307 0 q 408 181 408 111 q 402 228 408 204 q 381 275 396 253 q 560 422 492 321 q 629 644 629 524 m 275 133 l 275 133 q 244 117 261 119 q 210 114 226 114 q 204 114 207 114 q 199 114 201 114 q 192 114 196 114 q 186 114 189 114 l 186 244 l 229 244 q 276 224 260 244 q 293 179 293 204 q 293 171 293 175 q 292 164 293 167 q 286 148 290 156 q 275 133 282 140 m 514 644 l 514 644 q 431 443 514 526 q 229 360 347 360 l 186 360 l 186 931 q 208 931 197 931 q 229 931 218 931 q 431 847 347 931 q 514 644 514 763 "},"c":{"ha":936,"x_min":19,"x_max":922,"o":"m 922 167 l 922 167 l 839 246 q 704 151 781 185 q 543 117 628 117 q 255 237 375 117 q 135 525 135 357 q 255 814 135 694 q 543 933 375 933 q 704 900 628 933 q 839 806 781 867 l 922 883 q 749 1005 849 963 q 543 1047 650 1047 q 173 894 326 1047 q 19 525 19 740 q 173 156 19 310 q 543 3 326 3 q 749 46 650 3 q 922 167 849 89 "},"d":{"ha":629,"x_min":29,"x_max":601,"o":"m 601 524 l 601 524 q 451 889 601 736 q 86 1046 300 1042 q 72 1046 79 1046 q 58 1046 65 1046 q 43 1046 50 1046 q 29 1046 36 1046 l 29 0 q 43 0 36 0 q 58 0 50 0 q 72 0 65 0 q 86 0 79 0 q 451 157 300 4 q 601 524 601 310 m 486 524 l 486 524 q 389 258 486 374 q 143 119 292 143 l 143 926 q 389 788 292 903 q 486 524 486 672 "},"e":{"ha":615,"x_min":10,"x_max":592,"o":"m 592 247 l 592 247 l 592 363 l 192 363 l 192 933 l 592 933 l 592 1047 l 76 1047 l 76 363 l 10 363 l 10 247 l 76 247 l 76 3 l 585 3 l 585 117 l 192 117 l 192 247 l 592 247 "},"f":{"ha":583,"x_min":13,"x_max":556,"o":"m 556 249 l 556 249 l 556 363 l 200 363 l 200 933 l 543 933 l 543 1047 l 86 1047 l 86 363 l 13 363 l 13 249 l 86 249 l 86 3 l 200 3 l 200 249 l 556 249 "},"g":{"ha":619,"x_min":14,"x_max":586,"o":"m 586 1 l 586 1 l 586 363 l 313 363 l 313 249 l 471 249 l 471 122 q 226 261 324 146 q 128 525 128 376 q 244 810 128 690 q 526 933 361 929 l 526 1047 q 163 890 313 1043 q 14 525 14 736 q 165 159 14 313 q 528 3 315 6 q 558 3 543 3 q 586 1 572 3 "},"h":{"ha":686,"x_min":17,"x_max":658,"o":"m 658 3 l 658 3 l 658 1049 l 543 1049 l 543 363 l 206 363 l 206 1049 l 90 1049 l 90 363 l 17 363 l 17 247 l 90 247 l 90 3 l 206 3 l 206 247 l 543 247 l 543 3 l 658 3 "},"i":{"ha":157,"x_min":21,"x_max":135,"o":"m 135 0 l 135 0 l 135 1046 l 21 1046 l 21 0 l 135 0 "},"j":{"ha":422,"x_min":0,"x_max":403,"o":"m 403 243 l 403 243 q 403 444 403 343 q 403 646 403 544 q 403 848 403 747 q 403 1049 403 949 l 288 1049 q 288 848 288 949 q 288 646 288 747 q 288 444 288 544 q 288 243 288 343 q 203 40 288 125 q 0 -49 119 -46 l 3 -161 q 285 -40 168 -160 q 403 243 403 79 "},"k":{"ha":657,"x_min":22,"x_max":656,"o":"m 656 1046 l 656 1046 l 533 1046 l 238 294 l 136 407 l 136 1046 l 22 1046 l 22 0 l 136 0 l 136 236 l 350 0 l 503 0 l 324 200 l 656 1046 "},"l":{"ha":496,"x_min":22,"x_max":474,"o":"m 474 0 l 474 0 l 474 115 l 138 115 l 138 1046 l 22 1046 l 22 0 l 474 0 "},"m":{"ha":817,"x_min":6,"x_max":813,"o":"m 813 0 l 813 0 l 653 1086 l 408 829 l 165 1086 l 6 0 l 121 0 l 244 838 l 408 663 l 574 838 l 696 0 l 813 0 "},"n":{"ha":522,"x_min":24,"x_max":499,"o":"m 499 0 l 499 0 l 499 1046 l 385 1046 l 385 874 l 24 1089 l 24 0 l 138 0 l 138 888 l 385 740 l 385 0 l 499 0 "},"o":{"ha":394,"x_min":18,"x_max":378,"o":"m 378 868 l 378 868 q 324 994 378 942 q 197 1047 271 1047 q 71 994 124 1047 q 18 868 18 942 q 71 742 18 794 q 197 689 124 689 q 324 742 271 689 q 378 868 378 794 m 263 868 l 263 868 q 244 822 263 842 q 197 803 225 803 q 151 822 171 803 q 132 868 132 842 q 151 915 132 896 q 197 933 171 933 q 244 915 225 933 q 263 868 263 896 "},"p":{"ha":351,"x_min":17,"x_max":336,"o":"m 283 739 l 283 739 q 323 798 310 765 q 336 865 336 831 q 324 935 336 901 q 283 994 311 968 q 226 1033 258 1019 q 156 1047 193 1047 q 86 1047 121 1047 q 17 1047 51 1047 l 17 3 l 131 3 l 131 686 q 144 686 138 686 q 156 686 150 686 q 226 701 193 686 q 283 739 258 715 m 203 914 l 203 914 q 215 899 210 907 q 221 881 219 890 q 222 875 222 878 q 222 869 222 872 q 204 822 222 843 q 156 801 186 801 q 144 801 150 801 q 131 801 138 801 l 131 933 q 135 933 133 933 q 139 933 136 933 q 172 931 157 933 q 203 914 188 929 "},"q":{"ha":818,"x_min":15,"x_max":815,"o":"m 815 647 l 815 647 q 698 930 815 813 q 415 1047 581 1047 q 133 930 250 1047 q 15 647 15 813 q 101 401 15 508 q 318 260 188 293 l 100 3 l 638 3 l 638 117 l 347 117 l 458 250 q 712 381 608 267 q 815 647 815 494 m 700 647 l 700 647 q 611 440 700 517 q 413 363 522 364 q 397 363 404 363 q 381 364 389 364 q 293 390 336 369 q 214 446 250 410 q 155 532 175 485 q 131 628 135 579 q 131 637 131 632 q 131 646 131 642 q 208 844 131 756 q 415 933 285 933 q 617 849 533 933 q 700 647 700 765 "},"r":{"ha":596,"x_min":26,"x_max":568,"o":"m 568 3 l 568 3 l 568 117 q 474 158 521 117 q 382 274 426 199 q 299 460 336 351 q 233 700 261 569 q 316 765 285 719 q 347 867 347 811 q 294 994 347 942 q 167 1047 242 1047 q 131 1047 149 1047 q 97 1047 114 1047 q 62 1047 79 1047 q 26 1047 44 1047 l 26 3 l 142 3 l 142 589 q 206 382 169 476 q 285 215 242 288 q 415 58 343 114 q 568 3 488 3 m 214 914 l 214 914 q 225 899 221 907 q 231 881 229 890 q 232 875 232 878 q 232 869 232 872 q 215 822 233 843 q 167 801 197 801 q 155 803 161 803 q 142 803 149 803 l 142 933 q 144 933 143 933 q 146 933 146 933 q 182 931 165 933 q 214 914 199 929 "},"s":{"ha":682,"x_min":8,"x_max":679,"o":"m 679 350 l 679 350 q 651 478 679 425 q 574 572 622 532 q 503 620 542 599 q 421 663 464 642 q 388 678 404 671 q 356 693 372 685 q 296 721 325 707 q 247 751 267 735 q 223 778 232 763 q 214 815 214 794 q 249 899 214 864 q 332 933 283 933 q 404 908 372 933 q 446 843 436 883 l 557 869 q 475 997 539 947 q 332 1047 411 1047 q 167 979 236 1047 q 99 815 99 911 q 158 676 99 724 q 290 597 218 629 q 299 592 294 594 q 308 589 304 590 q 346 572 328 581 q 382 554 364 564 q 447 521 417 538 q 500 485 478 504 q 548 427 531 460 q 565 350 565 394 q 497 185 565 254 q 332 117 428 117 q 201 158 260 117 q 115 264 142 199 l 8 222 q 138 63 49 124 q 332 3 226 3 q 578 105 476 3 q 679 350 679 207 "},"t":{"ha":553,"x_min":26,"x_max":551,"o":"m 551 931 l 551 931 l 551 1046 l 26 1046 l 26 931 l 232 931 l 232 0 l 346 0 l 346 931 l 551 931 "},"u":{"ha":610,"x_min":14,"x_max":586,"o":"m 586 1 l 586 1 l 586 1049 l 471 1049 l 471 122 q 226 261 324 146 q 128 525 128 376 q 128 656 128 590 q 128 788 128 721 q 128 918 128 853 q 128 1049 128 983 l 14 1049 l 14 525 q 165 159 14 313 q 528 3 315 6 q 558 3 543 3 q 586 1 572 3 "},"v":{"ha":619,"x_min":14,"x_max":586,"o":"m 586 525 l 586 525 l 586 1049 l 472 1049 q 472 918 472 983 q 472 788 472 853 q 472 656 472 721 q 472 525 472 590 q 375 261 472 376 q 129 122 278 146 l 129 1049 l 14 1049 l 14 1 q 44 3 29 3 q 72 3 58 3 q 435 159 285 6 q 586 525 586 313 "},"w":{"ha":794,"x_min":18,"x_max":768,"o":"m 768 1 l 768 1 l 768 1049 l 654 1049 l 654 125 q 508 219 565 146 q 450 383 450 292 q 450 715 450 549 q 450 1049 450 882 l 336 1049 l 336 383 q 279 219 336 292 q 132 125 222 146 l 132 1049 l 18 1049 l 18 1 q 48 3 33 3 q 76 3 63 3 q 258 53 174 6 q 393 183 342 101 q 528 53 444 101 q 710 3 613 6 q 740 3 725 3 q 768 1 754 3 "},"x":{"ha":789,"x_min":-1,"x_max":792,"o":"m 792 1046 l 792 1046 l 660 1046 l 396 590 l 131 1046 l -1 1046 l 329 476 l 53 0 l 185 0 l 396 363 l 606 0 l 738 0 l 461 476 l 792 1046 "},"y":{"ha":657,"x_min":-1,"x_max":660,"o":"m 660 1046 l 660 1046 l 538 1046 l 329 472 l 119 1046 l -1 1046 l 272 296 l 272 3 l 386 3 l 386 296 l 660 1046 "},"z":{"ha":642,"x_min":1,"x_max":635,"o":"m 635 1046 l 635 1046 l 94 1046 l 94 931 l 453 931 l 1 0 l 550 0 l 550 115 l 183 115 l 635 1046 "},"{":{"ha":694,"x_min":0,"x_max":0,"o":""},"|":{"ha":694,"x_min":0,"x_max":0,"o":""},"}":{"ha":694,"x_min":0,"x_max":0,"o":""},"~":{"ha":694,"x_min":0,"x_max":0,"o":""},"Ä":{"ha":790,"x_min":38,"x_max":797,"o":"m 797 0 l 797 0 l 472 1042 l 364 1042 l 154 374 l 57 374 l 57 254 l 118 254 l 38 0 l 158 0 l 238 254 l 599 254 l 678 0 l 797 0 m 561 374 l 561 374 l 275 374 l 418 832 l 561 374 m 401 1115 l 401 1115 q 389 1147 401 1133 q 357 1160 376 1160 q 326 1147 339 1160 q 313 1115 313 1133 q 326 1083 313 1097 q 357 1069 339 1069 q 389 1083 376 1069 q 401 1115 401 1097 m 519 1115 l 519 1115 q 506 1147 519 1133 q 475 1160 493 1160 q 443 1147 457 1160 q 429 1115 429 1133 q 443 1083 429 1097 q 475 1069 457 1069 q 506 1083 493 1069 q 519 1115 519 1097 "},"Å":{"ha":790,"x_min":38,"x_max":797,"o":"m 797 0 l 797 0 l 472 1042 l 364 1042 l 154 374 l 57 374 l 57 254 l 118 254 l 38 0 l 158 0 l 238 254 l 599 254 l 678 0 l 797 0 m 561 374 l 561 374 l 275 374 l 418 832 l 561 374 m 489 1128 l 489 1128 q 470 1176 489 1157 q 419 1196 451 1196 q 369 1176 388 1196 q 350 1128 350 1156 q 351 1114 350 1122 q 357 1096 353 1106 q 378 1070 364 1082 q 419 1058 393 1058 q 470 1078 451 1058 q 489 1128 489 1097 m 447 1128 l 447 1128 q 440 1108 447 1117 q 419 1099 433 1099 q 417 1099 418 1099 q 415 1099 417 1099 q 399 1107 407 1100 q 390 1128 390 1114 q 399 1147 390 1139 q 415 1157 407 1156 q 417 1157 417 1157 q 419 1157 418 1157 q 439 1149 431 1157 q 447 1128 447 1140 "},"Ç":{"ha":575,"x_min":26,"x_max":549,"o":"m 438 36 l 438 36 l 388 64 l 314 -65 q 335 -78 325 -72 q 356 -90 346 -85 q 368 -103 363 -96 q 375 -118 374 -110 q 376 -121 375 -119 q 376 -124 376 -122 q 376 -125 376 -124 q 376 -128 376 -126 q 363 -158 376 -146 q 333 -171 350 -171 q 322 -169 328 -171 q 311 -167 317 -168 l 281 -214 q 294 -220 288 -218 q 307 -225 300 -222 q 319 -227 313 -226 q 332 -228 326 -228 q 382 -217 358 -229 q 419 -181 406 -204 q 430 -156 426 -168 q 433 -129 433 -143 q 422 -83 433 -104 q 390 -47 411 -61 l 438 36 m 549 0 l 549 0 l 549 115 q 260 235 381 115 q 140 524 140 356 q 260 811 140 692 q 549 931 381 931 l 549 1046 q 180 892 333 1046 q 26 524 26 739 q 180 153 26 307 q 549 0 333 0 "},"É":{"ha":642,"x_min":29,"x_max":613,"o":"m 613 -1 l 613 -1 l 613 115 q 328 238 444 118 q 211 524 211 357 q 211 605 211 564 q 211 686 211 646 l 611 686 l 611 801 l 211 801 l 211 931 l 604 931 l 604 1046 l 96 1046 l 96 801 l 29 801 l 29 686 l 96 686 q 96 605 96 646 q 96 524 96 564 q 248 156 96 310 q 613 -1 400 3 m 554 1092 l 554 1092 l 546 1142 l 333 1104 l 342 1054 l 554 1092 "},"Ñ":{"ha":518,"x_min":14,"x_max":500,"o":"m 500 0 l 500 0 l 500 1046 l 386 1046 l 386 944 q 238 1019 318 993 q 72 1046 157 1044 q 44 1046 58 1046 q 14 1046 29 1046 l 14 0 l 129 0 l 129 926 q 269 883 203 917 q 386 796 335 849 l 386 0 l 500 0 m 403 1154 l 403 1154 l 350 1154 q 335 1122 346 1132 q 311 1111 325 1111 q 308 1111 310 1111 q 307 1111 307 1111 q 292 1117 300 1113 q 272 1128 283 1121 q 250 1140 260 1135 q 231 1147 240 1146 q 219 1151 225 1150 q 206 1151 213 1151 q 188 1150 203 1151 q 157 1139 174 1149 q 130 1111 143 1129 q 111 1061 117 1093 l 164 1061 q 174 1085 167 1076 q 188 1097 181 1093 q 197 1100 193 1099 q 206 1101 201 1101 q 210 1101 208 1101 q 214 1101 211 1101 q 228 1095 219 1100 q 254 1079 236 1090 q 284 1066 269 1071 q 314 1061 299 1061 q 365 1076 347 1061 q 392 1111 383 1092 q 399 1135 397 1124 q 403 1154 401 1147 "},"Ö":{"ha":1083,"x_min":22,"x_max":1067,"o":"m 1067 524 l 1067 524 q 913 892 1067 739 q 544 1046 760 1046 q 176 892 329 1046 q 22 524 22 739 q 176 153 22 307 q 544 0 329 0 q 913 153 760 0 q 1067 524 1067 307 m 953 524 l 953 524 q 833 235 953 356 q 544 115 714 115 q 256 235 376 115 q 136 524 136 356 q 256 811 136 692 q 544 931 376 931 q 833 811 714 931 q 953 524 953 692 m 521 1101 l 521 1101 q 508 1133 521 1119 q 476 1146 496 1146 q 445 1133 458 1146 q 432 1101 432 1119 q 445 1069 432 1083 q 476 1056 458 1056 q 508 1069 496 1056 q 521 1101 521 1083 m 639 1101 l 639 1101 q 626 1133 639 1119 q 594 1146 613 1146 q 563 1133 576 1146 q 549 1101 549 1119 q 563 1069 549 1083 q 594 1056 576 1056 q 626 1069 613 1056 q 639 1101 639 1083 "},"Ü":{"ha":596,"x_min":26,"x_max":568,"o":"m 568 271 l 568 271 q 568 659 568 465 q 568 1046 568 853 l 454 1046 l 454 271 q 408 161 454 207 q 297 115 363 115 q 188 161 233 115 q 142 271 142 207 q 142 659 142 465 q 142 1046 142 853 l 26 1046 l 26 271 q 106 80 26 160 q 297 0 186 0 q 489 80 410 0 q 568 271 568 160 m 272 1101 l 272 1101 q 260 1133 272 1119 q 228 1146 247 1146 q 197 1133 210 1146 q 183 1101 183 1119 q 197 1069 183 1083 q 228 1056 210 1056 q 260 1069 247 1056 q 272 1101 272 1083 m 390 1101 l 390 1101 q 377 1133 390 1119 q 346 1146 364 1146 q 314 1133 328 1146 q 300 1101 300 1119 q 314 1069 300 1083 q 346 1056 328 1056 q 377 1069 364 1056 q 390 1101 390 1083 "},"á":{"ha":678,"x_min":17,"x_max":656,"o":"m 656 0 l 656 0 q 656 523 656 261 q 656 1046 656 785 q 627 1046 642 1046 q 597 1046 613 1046 q 234 889 385 1042 q 83 524 83 736 q 83 441 83 482 q 83 360 83 400 l 17 360 l 17 246 l 83 246 l 83 0 l 199 0 l 199 246 l 542 246 l 542 0 l 656 0 m 542 360 l 542 360 l 199 360 q 199 441 199 400 q 199 524 199 482 q 297 788 199 672 q 542 926 394 903 l 542 360 m 651 1092 l 651 1092 l 643 1142 l 431 1104 l 439 1054 l 651 1092 "},"à":{"ha":678,"x_min":17,"x_max":656,"o":"m 656 0 l 656 0 q 656 523 656 261 q 656 1046 656 785 q 627 1046 642 1046 q 597 1046 613 1046 q 234 889 385 1042 q 83 524 83 736 q 83 441 83 482 q 83 360 83 400 l 17 360 l 17 246 l 83 246 l 83 0 l 199 0 l 199 246 l 542 246 l 542 0 l 656 0 m 542 360 l 542 360 l 199 360 q 199 441 199 400 q 199 524 199 482 q 297 788 199 672 q 542 926 394 903 l 542 360 m 542 1104 l 542 1104 l 329 1142 l 321 1092 l 533 1054 l 542 1104 "},"â":{"ha":678,"x_min":17,"x_max":656,"o":"m 656 0 l 656 0 q 656 523 656 261 q 656 1046 656 785 q 627 1046 642 1046 q 597 1046 613 1046 q 234 889 385 1042 q 83 524 83 736 q 83 441 83 482 q 83 360 83 400 l 17 360 l 17 246 l 83 246 l 83 0 l 199 0 l 199 246 l 542 246 l 542 0 l 656 0 m 542 360 l 542 360 l 199 360 q 199 441 199 400 q 199 524 199 482 q 297 788 199 672 q 542 926 394 903 l 542 360 m 638 1111 l 638 1111 l 493 1164 l 349 1111 l 367 1064 l 493 1110 l 621 1064 l 638 1111 "},"ä":{"ha":678,"x_min":17,"x_max":656,"o":"m 656 0 l 656 0 q 656 523 656 261 q 656 1046 656 785 q 627 1046 642 1046 q 597 1046 613 1046 q 234 889 385 1042 q 83 524 83 736 q 83 441 83 482 q 83 360 83 400 l 17 360 l 17 246 l 83 246 l 83 0 l 199 0 l 199 246 l 542 246 l 542 0 l 656 0 m 542 360 l 542 360 l 199 360 q 199 441 199 400 q 199 524 199 482 q 297 788 199 672 q 542 926 394 903 l 542 360 m 597 1125 l 597 1125 q 578 1174 597 1154 q 528 1193 560 1193 q 477 1173 496 1193 q 458 1125 458 1153 q 460 1111 458 1119 q 465 1093 461 1103 q 487 1067 472 1079 q 528 1056 501 1056 q 578 1075 560 1056 q 597 1125 597 1094 m 556 1125 l 556 1125 q 549 1105 556 1114 q 528 1096 542 1096 q 526 1096 526 1096 q 524 1096 525 1096 q 507 1104 515 1097 q 499 1125 499 1111 q 507 1144 499 1136 q 524 1154 515 1153 q 526 1154 525 1154 q 528 1154 526 1154 q 547 1146 539 1154 q 556 1125 556 1138 "},"ã":{"ha":678,"x_min":17,"x_max":656,"o":"m 656 0 l 656 0 q 656 523 656 261 q 656 1046 656 785 q 627 1046 642 1046 q 597 1046 613 1046 q 234 889 385 1042 q 83 524 83 736 q 83 441 83 482 q 83 360 83 400 l 17 360 l 17 246 l 83 246 l 83 0 l 199 0 l 199 246 l 542 246 l 542 0 l 656 0 m 542 360 l 542 360 l 199 360 q 199 441 199 400 q 199 524 199 482 q 297 788 199 672 q 542 926 394 903 l 542 360 m 625 1154 l 625 1154 l 572 1154 q 558 1122 568 1132 q 533 1111 547 1111 q 531 1111 532 1111 q 529 1111 529 1111 q 514 1117 522 1113 q 494 1128 506 1121 q 472 1140 482 1135 q 453 1147 463 1146 q 441 1151 447 1150 q 428 1151 435 1151 q 410 1150 425 1151 q 379 1139 396 1149 q 352 1111 365 1129 q 333 1061 339 1093 l 386 1061 q 396 1085 389 1076 q 410 1097 403 1093 q 419 1100 415 1099 q 428 1101 424 1101 q 432 1101 431 1101 q 436 1101 433 1101 q 450 1095 442 1100 q 476 1079 458 1090 q 506 1066 492 1071 q 536 1061 521 1061 q 588 1076 569 1061 q 614 1111 606 1092 q 622 1135 619 1124 q 625 1154 624 1147 "},"å":{"ha":678,"x_min":17,"x_max":656,"o":"m 656 0 l 656 0 q 656 523 656 261 q 656 1046 656 785 q 627 1046 642 1046 q 597 1046 613 1046 q 234 889 385 1042 q 83 524 83 736 q 83 441 83 482 q 83 360 83 400 l 17 360 l 17 246 l 83 246 l 83 0 l 199 0 l 199 246 l 542 246 l 542 0 l 656 0 m 542 360 l 542 360 l 199 360 q 199 441 199 400 q 199 524 199 482 q 297 788 199 672 q 542 926 394 903 l 542 360 "},"ç":{"ha":936,"x_min":19,"x_max":922,"o":"m 521 22 l 521 22 l 471 50 l 397 -79 q 419 -92 408 -86 q 439 -104 429 -99 q 451 -117 446 -110 q 458 -132 457 -124 q 459 -135 458 -133 q 460 -137 460 -136 q 460 -139 460 -137 q 460 -142 460 -140 q 447 -172 460 -160 q 417 -185 433 -185 q 406 -183 411 -185 q 394 -181 400 -182 l 364 -228 q 377 -234 371 -232 q 390 -239 383 -236 q 403 -241 396 -240 q 415 -242 410 -242 q 465 -231 442 -243 q 503 -194 489 -218 q 513 -169 510 -182 q 517 -143 517 -157 q 506 -97 517 -118 q 474 -61 494 -75 l 521 22 m 922 167 l 922 167 l 839 246 q 704 151 781 185 q 543 117 628 117 q 255 237 375 117 q 135 525 135 357 q 255 814 135 694 q 543 933 375 933 q 704 900 628 933 q 839 806 781 867 l 922 883 q 749 1005 849 963 q 543 1047 650 1047 q 173 894 326 1047 q 19 525 19 740 q 173 156 19 310 q 543 3 326 3 q 749 46 650 3 q 922 167 849 89 "},"é":{"ha":615,"x_min":10,"x_max":592,"o":"m 592 247 l 592 247 l 592 363 l 192 363 l 192 933 l 592 933 l 592 1047 l 76 1047 l 76 363 l 10 363 l 10 247 l 76 247 l 76 3 l 585 3 l 585 117 l 192 117 l 192 247 l 592 247 m 526 1106 l 526 1106 l 518 1156 l 306 1118 l 314 1068 l 526 1106 "},"è":{"ha":615,"x_min":10,"x_max":592,"o":"m 592 247 l 592 247 l 592 363 l 192 363 l 192 933 l 592 933 l 592 1047 l 76 1047 l 76 363 l 10 363 l 10 247 l 76 247 l 76 3 l 585 3 l 585 117 l 192 117 l 192 247 l 592 247 m 417 1118 l 417 1118 l 204 1156 l 196 1106 l 408 1068 l 417 1118 "},"ê":{"ha":615,"x_min":10,"x_max":592,"o":"m 592 247 l 592 247 l 592 363 l 192 363 l 192 933 l 592 933 l 592 1047 l 76 1047 l 76 363 l 10 363 l 10 247 l 76 247 l 76 3 l 585 3 l 585 117 l 192 117 l 192 247 l 592 247 m 485 1111 l 485 1111 l 340 1164 l 196 1111 l 214 1064 l 340 1110 l 468 1064 l 485 1111 "},"ë":{"ha":615,"x_min":10,"x_max":592,"o":"m 592 247 l 592 247 l 592 363 l 192 363 l 192 933 l 592 933 l 592 1047 l 76 1047 l 76 363 l 10 363 l 10 247 l 76 247 l 76 3 l 585 3 l 585 117 l 192 117 l 192 247 l 592 247 m 326 1101 l 326 1101 q 314 1133 326 1119 q 282 1146 301 1146 q 251 1133 264 1146 q 238 1101 238 1119 q 251 1069 238 1083 q 282 1056 264 1056 q 314 1069 301 1056 q 326 1101 326 1083 m 444 1101 l 444 1101 q 431 1133 444 1119 q 400 1146 418 1146 q 368 1133 382 1146 q 354 1101 354 1119 q 368 1069 354 1083 q 400 1056 382 1056 q 431 1069 418 1056 q 444 1101 444 1083 "},"í":{"ha":157,"x_min":21,"x_max":263,"o":"m 135 0 l 135 0 l 135 1046 l 21 1046 l 21 0 l 135 0 m 263 1092 l 263 1092 l 254 1142 l 42 1104 l 50 1054 l 263 1092 "},"ì":{"ha":157,"x_min":-96,"x_max":135,"o":"m 135 0 l 135 0 l 135 1046 l 21 1046 l 21 0 l 135 0 m 125 1118 l 125 1118 l -87 1156 l -96 1106 l 117 1068 l 125 1118 "},"î":{"ha":157,"x_min":-67,"x_max":222,"o":"m 135 0 l 135 0 l 135 1046 l 21 1046 l 21 0 l 135 0 m 222 1082 l 222 1082 l 78 1135 l -67 1082 l -49 1035 l 78 1081 l 206 1035 l 222 1082 "},"ï":{"ha":157,"x_min":-25,"x_max":181,"o":"m 135 0 l 135 0 l 135 1046 l 21 1046 l 21 0 l 135 0 m 63 1101 l 63 1101 q 50 1133 63 1119 q 18 1146 38 1146 q -12 1133 0 1146 q -25 1101 -25 1119 q -12 1069 -25 1083 q 18 1056 0 1056 q 50 1069 38 1056 q 63 1101 63 1083 m 181 1101 l 181 1101 q 167 1133 181 1119 q 136 1146 154 1146 q 104 1133 118 1146 q 90 1101 90 1119 q 104 1069 90 1083 q 136 1056 118 1056 q 167 1069 154 1056 q 181 1101 181 1083 "},"ñ":{"ha":522,"x_min":24,"x_max":499,"o":"m 499 0 l 499 0 l 499 1046 l 385 1046 l 385 874 l 24 1089 l 24 0 l 138 0 l 138 888 l 385 740 l 385 0 l 499 0 m 404 1139 l 404 1139 l 351 1139 q 337 1106 347 1117 q 313 1096 326 1096 q 310 1096 311 1096 q 308 1096 308 1096 q 293 1101 301 1097 q 274 1113 285 1106 q 251 1125 261 1119 q 232 1132 242 1131 q 220 1135 226 1135 q 207 1136 214 1136 q 190 1135 204 1136 q 158 1124 175 1133 q 131 1096 144 1114 q 113 1046 118 1078 l 165 1046 q 175 1069 168 1061 q 189 1082 182 1078 q 199 1085 194 1083 q 207 1086 203 1086 q 211 1086 210 1086 q 215 1086 213 1086 q 229 1080 221 1085 q 256 1064 238 1075 q 285 1051 271 1056 q 315 1046 300 1046 q 367 1061 349 1046 q 393 1096 385 1076 q 401 1120 399 1108 q 404 1139 403 1132 "},"ó":{"ha":394,"x_min":18,"x_max":378,"o":"m 378 868 l 378 868 q 324 994 378 942 q 197 1047 271 1047 q 71 994 124 1047 q 18 868 18 942 q 71 742 18 794 q 197 689 124 689 q 324 742 271 689 q 378 868 378 794 m 263 868 l 263 868 q 244 822 263 842 q 197 803 225 803 q 151 822 171 803 q 132 868 132 842 q 151 915 132 896 q 197 933 171 933 q 244 915 225 933 q 263 868 263 896 m 346 1092 l 346 1092 l 338 1142 l 125 1104 l 133 1054 l 346 1092 "},"ò":{"ha":394,"x_min":18,"x_max":378,"o":"m 378 868 l 378 868 q 324 994 378 942 q 197 1047 271 1047 q 71 994 124 1047 q 18 868 18 942 q 71 742 18 794 q 197 689 124 689 q 324 742 271 689 q 378 868 378 794 m 263 868 l 263 868 q 244 822 263 842 q 197 803 225 803 q 151 822 171 803 q 132 868 132 842 q 151 915 132 896 q 197 933 171 933 q 244 915 225 933 q 263 868 263 896 m 292 1104 l 292 1104 l 79 1142 l 71 1092 l 283 1054 l 292 1104 "},"ô":{"ha":394,"x_min":18,"x_max":378,"o":"m 378 868 l 378 868 q 324 994 378 942 q 197 1047 271 1047 q 71 994 124 1047 q 18 868 18 942 q 71 742 18 794 q 197 689 124 689 q 324 742 271 689 q 378 868 378 794 m 263 868 l 263 868 q 244 822 263 842 q 197 803 225 803 q 151 822 171 803 q 132 868 132 842 q 151 915 132 896 q 197 933 171 933 q 244 915 225 933 q 263 868 263 896 m 342 1075 l 342 1075 l 197 1128 l 53 1075 l 71 1028 l 197 1074 l 325 1028 l 342 1075 "},"ö":{"ha":394,"x_min":18,"x_max":378,"o":"m 378 868 l 378 868 q 324 994 378 942 q 197 1047 271 1047 q 71 994 124 1047 q 18 868 18 942 q 71 742 18 794 q 197 689 124 689 q 324 742 271 689 q 378 868 378 794 m 263 868 l 263 868 q 244 822 263 842 q 197 803 225 803 q 151 822 171 803 q 132 868 132 842 q 151 915 132 896 q 197 933 171 933 q 244 915 225 933 q 263 868 263 896 m 182 1100 l 182 1100 q 169 1131 182 1118 q 138 1144 157 1144 q 106 1131 119 1144 q 93 1100 93 1118 q 106 1068 93 1082 q 138 1054 119 1054 q 169 1068 157 1054 q 182 1100 182 1082 m 300 1100 l 300 1100 q 287 1131 300 1118 q 256 1144 274 1144 q 224 1131 238 1144 q 210 1100 210 1118 q 224 1068 210 1082 q 256 1054 238 1054 q 287 1068 274 1054 q 300 1100 300 1082 "},"õ":{"ha":394,"x_min":18,"x_max":378,"o":"m 378 868 l 378 868 q 324 994 378 942 q 197 1047 271 1047 q 71 994 124 1047 q 18 868 18 942 q 71 742 18 794 q 197 689 124 689 q 324 742 271 689 q 378 868 378 794 m 263 868 l 263 868 q 244 822 263 842 q 197 803 225 803 q 151 822 171 803 q 132 868 132 842 q 151 915 132 896 q 197 933 171 933 q 244 915 225 933 q 263 868 263 896 m 343 1147 l 343 1147 l 290 1147 q 276 1115 286 1125 q 251 1104 265 1104 q 249 1104 250 1104 q 247 1104 247 1104 q 232 1110 240 1106 q 213 1121 224 1114 q 190 1133 200 1128 q 171 1140 181 1139 q 159 1144 165 1143 q 146 1144 153 1144 q 128 1143 143 1144 q 97 1132 114 1142 q 70 1104 83 1122 q 51 1054 57 1086 l 104 1054 q 114 1078 107 1069 q 128 1090 121 1086 q 138 1093 133 1092 q 146 1094 142 1094 q 150 1094 149 1094 q 154 1094 151 1094 q 168 1088 160 1093 q 194 1072 176 1083 q 224 1059 210 1064 q 254 1054 239 1054 q 306 1069 288 1054 q 332 1104 324 1085 q 340 1128 338 1117 q 343 1147 342 1140 "},"ú":{"ha":610,"x_min":14,"x_max":586,"o":"m 586 1 l 586 1 l 586 1049 l 471 1049 l 471 122 q 226 261 324 146 q 128 525 128 376 q 128 656 128 590 q 128 788 128 721 q 128 918 128 853 q 128 1049 128 983 l 14 1049 l 14 525 q 165 159 14 313 q 528 3 315 6 q 558 3 543 3 q 586 1 572 3 m 457 1092 l 457 1092 l 449 1142 l 236 1104 l 244 1054 l 457 1092 "},"ù":{"ha":610,"x_min":14,"x_max":586,"o":"m 586 1 l 586 1 l 586 1049 l 471 1049 l 471 122 q 226 261 324 146 q 128 525 128 376 q 128 656 128 590 q 128 788 128 721 q 128 918 128 853 q 128 1049 128 983 l 14 1049 l 14 525 q 165 159 14 313 q 528 3 315 6 q 558 3 543 3 q 586 1 572 3 m 389 1090 l 389 1090 l 176 1128 l 168 1078 l 381 1040 l 389 1090 "},"û":{"ha":610,"x_min":14,"x_max":586,"o":"m 586 1 l 586 1 l 586 1049 l 471 1049 l 471 122 q 226 261 324 146 q 128 525 128 376 q 128 656 128 590 q 128 788 128 721 q 128 918 128 853 q 128 1049 128 983 l 14 1049 l 14 525 q 165 159 14 313 q 528 3 315 6 q 558 3 543 3 q 586 1 572 3 m 443 1083 l 443 1083 l 299 1136 l 154 1083 l 172 1036 l 299 1082 l 426 1036 l 443 1083 "},"ü":{"ha":610,"x_min":14,"x_max":586,"o":"m 586 1 l 586 1 l 586 1049 l 471 1049 l 471 122 q 226 261 324 146 q 128 525 128 376 q 128 656 128 590 q 128 788 128 721 q 128 918 128 853 q 128 1049 128 983 l 14 1049 l 14 525 q 165 159 14 313 q 528 3 315 6 q 558 3 543 3 q 586 1 572 3 m 285 1101 l 285 1101 q 272 1133 285 1119 q 240 1146 260 1146 q 209 1133 222 1146 q 196 1101 196 1119 q 209 1069 196 1083 q 240 1056 222 1056 q 272 1069 260 1056 q 285 1101 285 1083 m 403 1101 l 403 1101 q 390 1133 403 1119 q 358 1146 376 1146 q 326 1133 340 1146 q 313 1101 313 1119 q 326 1069 313 1083 q 358 1056 340 1056 q 390 1069 376 1056 q 403 1101 403 1083 "},"†":{"ha":694,"x_min":0,"x_max":0,"o":""},"¢":{"ha":406,"x_min":18,"x_max":388,"o":"m 388 154 l 388 154 l 388 268 q 208 343 282 268 q 133 524 133 418 q 208 703 133 628 q 388 778 282 778 l 388 892 q 352 890 369 892 q 317 885 335 888 l 317 1046 l 203 1046 l 203 842 q 69 710 121 794 q 18 524 18 625 q 69 338 18 422 q 203 204 121 253 l 203 0 l 317 0 l 317 161 q 352 156 335 158 q 388 154 369 154 "},"£":{"ha":533,"x_min":24,"x_max":510,"o":"m 510 0 l 510 0 l 510 115 l 225 115 l 225 246 l 369 246 l 369 360 l 225 360 l 225 411 l 369 411 l 369 526 l 225 526 q 225 585 225 556 q 225 646 225 615 q 308 847 225 764 q 510 931 392 931 l 510 1046 q 228 927 344 1044 q 111 646 111 810 q 111 585 111 615 q 111 526 111 556 l 24 526 l 24 411 l 111 411 l 111 360 l 24 360 l 24 246 l 111 246 l 111 0 l 510 0 "},"§":{"ha":694,"x_min":0,"x_max":0,"o":""},"¶":{"ha":694,"x_min":0,"x_max":0,"o":""},"ß":{"ha":729,"x_min":33,"x_max":696,"o":"m 696 254 l 696 254 q 627 426 696 353 q 460 506 558 499 q 446 513 450 507 q 442 526 442 519 q 442 529 442 528 q 442 532 442 531 q 446 543 442 538 q 457 551 450 549 q 579 645 533 579 q 625 792 625 711 q 550 971 625 896 q 371 1046 475 1046 q 190 971 265 1046 q 115 792 115 896 q 115 722 115 757 q 115 653 115 688 l 33 653 l 33 539 l 115 539 l 115 -165 l 231 -164 q 231 313 231 74 q 231 792 231 553 q 272 890 231 849 q 371 931 313 931 q 474 887 439 931 q 510 790 510 843 q 488 713 510 750 q 418 660 465 676 q 350 606 372 643 q 328 529 328 569 q 360 437 328 479 q 451 390 392 394 q 503 378 479 389 q 544 347 526 367 q 569 311 560 331 q 579 272 578 292 q 581 264 581 268 q 581 256 581 260 q 544 160 581 203 q 444 117 507 117 q 434 117 439 117 q 425 117 429 117 q 415 117 419 117 q 404 117 410 117 l 404 3 q 415 3 410 3 q 425 3 419 3 q 434 3 429 3 q 444 3 439 3 q 622 76 549 3 q 696 254 696 150 "},"®":{"ha":694,"x_min":0,"x_max":0,"o":""},"©":{"ha":694,"x_min":0,"x_max":0,"o":""},"™":{"ha":476,"x_min":18,"x_max":449,"o":"m 204 993 l 204 993 l 204 1044 l 18 1044 l 18 993 l 86 993 l 86 686 l 136 686 l 136 993 l 204 993 m 449 686 l 449 686 l 449 1063 l 331 971 l 215 1063 l 215 686 l 265 686 l 265 957 l 331 907 l 397 958 l 397 686 l 449 686 "},"´":{"ha":243,"x_min":14,"x_max":235,"o":"m 235 1092 l 235 1092 l 226 1142 l 14 1104 l 22 1054 l 235 1092 "},"¨":{"ha":319,"x_min":57,"x_max":264,"o":"m 146 1101 l 146 1101 q 133 1133 146 1119 q 101 1146 121 1146 q 70 1133 83 1146 q 57 1101 57 1119 q 70 1069 57 1083 q 101 1056 83 1056 q 133 1069 121 1056 q 146 1101 146 1083 m 264 1101 l 264 1101 q 251 1133 264 1119 q 219 1146 238 1146 q 188 1133 201 1146 q 174 1101 174 1119 q 188 1069 174 1083 q 219 1056 201 1056 q 251 1069 238 1056 q 264 1101 264 1083 "},"≠":{"ha":694,"x_min":0,"x_max":0,"o":""},"Æ":{"ha":1004,"x_min":22,"x_max":982,"o":"m 982 115 l 982 115 q 825 149 899 117 q 697 238 751 182 q 612 366 643 293 q 581 524 581 439 l 581 686 l 981 686 l 981 801 l 581 801 l 581 931 q 584 931 582 931 q 588 931 586 931 q 591 931 589 931 q 594 931 593 931 l 974 931 l 974 1046 l 594 1046 q 394 1004 489 1046 q 231 892 300 963 q 193 848 211 871 q 160 801 175 825 l 22 801 l 22 686 l 106 686 q 86 607 93 647 q 79 524 79 567 l 79 0 l 194 0 l 194 524 q 203 608 194 567 q 228 686 211 649 l 465 686 l 465 524 q 506 322 465 417 q 615 157 547 228 q 779 44 685 86 q 979 0 874 3 l 982 115 m 465 801 l 465 801 l 301 801 q 304 804 303 803 q 307 807 306 806 q 310 808 308 807 q 313 811 311 810 q 383 869 344 844 q 465 910 422 894 l 465 801 "},"Ø":{"ha":1150,"x_min":51,"x_max":1097,"o":"m 1089 614 l 1089 614 q 1029 781 1074 704 q 919 915 985 858 l 1010 1044 l 869 1044 l 825 981 q 706 1028 769 1013 q 575 1046 642 1044 q 531 1044 553 1046 q 485 1038 508 1042 q 174 857 294 1004 q 51 524 53 710 q 53 478 51 501 q 60 432 56 456 q 122 265 76 342 q 231 131 167 188 l 139 0 l 278 0 l 324 65 q 444 18 381 35 q 575 0 507 1 q 620 2 597 0 q 665 8 643 4 q 976 189 856 42 q 1097 522 1097 336 q 1095 569 1097 546 q 1089 614 1093 592 m 976 594 l 976 594 q 981 559 979 576 q 982 525 982 542 q 889 263 983 378 q 646 121 794 147 q 611 117 628 118 q 578 115 594 115 q 481 126 528 115 q 390 160 433 138 l 853 821 q 933 720 900 778 q 976 594 965 663 m 760 886 l 760 886 l 296 225 q 217 326 249 269 q 172 451 185 383 q 168 487 169 469 q 167 521 167 504 q 260 783 165 668 q 504 925 356 899 q 539 929 522 928 q 572 931 556 931 q 669 919 622 931 q 760 886 717 908 "},"∞":{"ha":417,"x_min":0,"x_max":0,"o":""},"±":{"ha":694,"x_min":0,"x_max":0,"o":""},"≤":{"ha":694,"x_min":0,"x_max":0,"o":""},"≥":{"ha":694,"x_min":0,"x_max":0,"o":""},"¥":{"ha":729,"x_min":33,"x_max":696,"o":"m 696 1046 l 696 1046 l 574 1046 l 364 469 l 154 1046 l 33 1046 l 222 526 l 149 526 l 149 411 l 264 411 l 283 360 l 149 360 l 149 246 l 307 246 l 307 0 l 421 0 l 421 246 l 579 246 l 579 360 l 446 360 l 465 411 l 579 411 l 579 526 l 507 526 l 696 1046 "},"µ":{"ha":694,"x_min":0,"x_max":0,"o":""},"∂":{"ha":694,"x_min":0,"x_max":0,"o":""},"Σ":{"ha":694,"x_min":0,"x_max":0,"o":""},"∏":{"ha":417,"x_min":0,"x_max":0,"o":""},"π":{"ha":694,"x_min":0,"x_max":0,"o":""},"∫":{"ha":417,"x_min":0,"x_max":0,"o":""},"ª":{"ha":303,"x_min":10,"x_max":282,"o":"m 282 594 l 282 594 q 282 704 282 650 q 282 813 282 758 q 282 921 282 867 q 282 1031 282 975 q 264 1031 271 1031 q 251 1031 257 1031 q 100 965 163 1029 q 38 813 38 901 q 38 799 38 806 q 38 785 38 792 q 38 769 38 776 q 38 756 38 763 l 10 756 l 10 693 l 38 693 l 38 594 l 100 594 l 100 693 l 221 693 l 221 594 l 282 594 m 221 756 l 221 756 l 100 756 q 100 769 100 763 q 100 785 100 776 q 100 799 100 792 q 100 813 100 806 q 135 910 100 867 q 221 964 169 953 l 221 756 "},"º":{"ha":460,"x_min":13,"x_max":447,"o":"m 447 835 l 447 835 q 383 988 447 925 q 231 1051 319 1051 q 77 988 142 1051 q 13 835 13 925 q 77 681 13 746 q 231 617 142 617 q 383 681 319 617 q 447 835 447 746 m 385 835 l 385 835 q 340 725 385 771 q 231 679 294 679 q 121 725 167 679 q 75 835 75 771 q 121 944 75 899 q 231 989 167 989 q 340 944 294 989 q 385 835 385 899 "},"Ω":{"ha":694,"x_min":0,"x_max":0,"o":""},"æ":{"ha":1069,"x_min":11,"x_max":1054,"o":"m 1054 246 l 1054 246 l 1054 360 l 653 360 l 653 933 l 1054 933 l 1054 1046 l 593 1046 q 229 890 379 1044 q 79 524 79 736 q 79 441 79 482 q 79 360 79 400 l 11 360 l 11 246 l 79 246 l 79 0 l 193 0 l 193 246 l 536 246 l 536 0 l 1049 0 l 1049 114 l 653 114 l 653 246 l 1054 246 m 536 360 l 536 360 l 193 360 q 193 441 193 400 q 193 524 193 482 q 291 788 193 672 q 536 926 389 903 l 536 360 "},"ø":{"ha":446,"x_min":21,"x_max":425,"o":"m 425 1044 l 425 1044 l 286 1044 l 274 1028 q 249 1033 261 1031 q 222 1035 236 1035 q 208 1034 215 1035 q 192 1032 200 1033 q 85 970 126 1021 q 43 856 43 919 q 43 848 43 851 q 44 840 43 844 q 45 833 44 836 q 46 825 46 829 q 58 784 50 803 q 78 749 67 765 l 21 667 l 160 667 l 172 683 q 195 678 183 679 q 219 676 207 676 q 236 677 228 676 q 254 679 244 678 q 361 741 319 690 q 403 856 403 792 q 403 863 403 860 q 401 871 403 867 q 401 878 401 875 q 400 886 400 882 q 388 927 396 908 q 367 963 379 946 l 425 1044 m 288 867 l 288 867 q 288 864 288 865 q 289 863 288 863 q 289 860 289 861 q 289 857 289 858 q 274 815 289 833 q 233 792 258 796 q 227 790 231 790 q 221 790 224 790 q 181 806 199 790 q 158 844 163 821 q 158 847 158 846 q 158 850 158 849 q 157 851 157 850 q 157 854 157 853 q 172 897 157 878 q 211 919 188 915 q 217 921 214 921 q 224 921 221 921 q 265 906 247 921 q 288 867 283 890 "},"¿":{"ha":518,"x_min":22,"x_max":493,"o":"m 476 418 l 476 418 l 476 625 l 361 625 l 361 528 q 119 393 215 506 q 22 132 22 281 q 138 -148 22 -31 q 418 -267 254 -265 q 445 -267 432 -267 q 472 -268 458 -267 l 472 -153 l 419 -151 q 219 -67 301 -150 q 136 132 136 15 q 219 333 136 250 q 419 418 303 417 q 433 418 426 418 q 449 418 440 418 q 463 418 456 418 q 476 418 469 418 m 493 721 l 493 721 q 472 773 493 751 q 419 794 450 794 q 367 773 389 794 q 346 721 346 751 q 367 669 346 690 q 419 647 389 647 q 472 669 450 647 q 493 721 493 690 "},"¡":{"ha":168,"x_min":7,"x_max":153,"o":"m 22 622 l 22 622 l 22 -268 l 138 -268 l 138 622 l 22 622 m 7 718 l 7 718 q 28 666 7 688 q 81 644 50 644 q 132 666 111 644 q 153 718 153 688 q 132 770 153 749 q 81 792 111 792 q 28 770 50 792 q 7 718 7 749 "},"¬":{"ha":694,"x_min":0,"x_max":0,"o":""},"√":{"ha":694,"x_min":0,"x_max":0,"o":""},"ƒ":{"ha":694,"x_min":0,"x_max":0,"o":""},"≈":{"ha":694,"x_min":0,"x_max":0,"o":""},"∆":{"ha":694,"x_min":0,"x_max":0,"o":""},"«":{"ha":421,"x_min":21,"x_max":403,"o":"m 236 354 l 236 354 l 236 486 l 153 569 l 236 653 l 236 785 l 21 569 l 236 354 m 403 354 l 403 354 l 403 486 l 319 569 l 403 653 l 403 785 l 188 569 l 403 354 "},"»":{"ha":421,"x_min":28,"x_max":410,"o":"m 243 569 l 243 569 l 28 785 l 28 653 l 111 569 l 28 486 l 28 354 l 243 569 m 410 569 l 410 569 l 194 785 l 194 653 l 278 569 l 194 486 l 194 354 l 410 569 "},"…":{"ha":538,"x_min":39,"x_max":518,"o":"m 185 57 l 185 57 q 163 109 185 88 q 111 131 142 131 q 60 109 81 131 q 39 57 39 88 q 60 6 39 26 q 111 -15 81 -15 q 163 6 142 -15 q 185 57 185 26 m 351 57 l 351 57 q 330 109 351 88 q 278 131 308 131 q 226 109 247 131 q 206 57 206 88 q 226 6 206 26 q 278 -15 247 -15 q 330 6 308 -15 q 351 57 351 26 m 518 57 l 518 57 q 497 109 518 88 q 444 131 475 131 q 393 109 414 131 q 372 57 372 88 q 393 6 372 26 q 444 -15 414 -15 q 497 6 475 -15 q 518 57 518 26 "},"À":{"ha":790,"x_min":38,"x_max":797,"o":"m 797 0 l 797 0 l 472 1042 l 364 1042 l 154 374 l 57 374 l 57 254 l 118 254 l 38 0 l 158 0 l 238 254 l 599 254 l 678 0 l 797 0 m 561 374 l 561 374 l 275 374 l 418 832 l 561 374 m 444 1104 l 444 1104 l 232 1142 l 224 1092 l 436 1054 l 444 1104 "},"Ã":{"ha":790,"x_min":38,"x_max":797,"o":"m 797 0 l 797 0 l 472 1042 l 364 1042 l 154 374 l 57 374 l 57 254 l 118 254 l 38 0 l 158 0 l 238 254 l 599 254 l 678 0 l 797 0 m 561 374 l 561 374 l 275 374 l 418 832 l 561 374 m 556 1153 l 556 1153 l 503 1153 q 488 1120 499 1131 q 464 1110 478 1110 q 461 1110 463 1110 q 460 1110 460 1110 q 444 1115 453 1111 q 425 1126 436 1119 q 403 1139 413 1133 q 383 1146 393 1144 q 372 1149 378 1149 q 358 1150 365 1150 q 341 1149 356 1150 q 310 1138 326 1147 q 283 1110 296 1128 q 264 1060 269 1092 l 317 1060 q 326 1083 319 1075 q 340 1096 333 1092 q 350 1099 346 1097 q 358 1100 354 1100 q 363 1100 361 1100 q 367 1100 364 1100 q 381 1094 372 1099 q 407 1078 389 1089 q 437 1065 422 1069 q 467 1060 451 1060 q 518 1075 500 1060 q 544 1110 536 1090 q 552 1134 550 1122 q 556 1153 554 1146 "},"Õ":{"ha":1083,"x_min":22,"x_max":1067,"o":"m 1067 524 l 1067 524 q 913 892 1067 739 q 544 1046 760 1046 q 176 892 329 1046 q 22 524 22 739 q 176 153 22 307 q 544 0 329 0 q 913 153 760 0 q 1067 524 1067 307 m 953 524 l 953 524 q 833 235 953 356 q 544 115 714 115 q 256 235 376 115 q 136 524 136 356 q 256 811 136 692 q 544 931 376 931 q 833 811 714 931 q 953 524 953 692 m 694 1154 l 694 1154 l 642 1154 q 627 1122 638 1132 q 603 1111 617 1111 q 600 1111 601 1111 q 599 1111 599 1111 q 583 1117 592 1113 q 564 1128 575 1121 q 542 1140 551 1135 q 522 1147 532 1146 q 510 1151 517 1150 q 497 1151 504 1151 q 480 1150 494 1151 q 449 1139 465 1149 q 422 1111 435 1129 q 403 1061 408 1093 l 456 1061 q 465 1085 458 1076 q 479 1097 472 1093 q 489 1100 485 1099 q 497 1101 493 1101 q 501 1101 500 1101 q 506 1101 503 1101 q 519 1095 511 1100 q 546 1079 528 1090 q 576 1066 561 1071 q 606 1061 590 1061 q 657 1076 639 1061 q 683 1111 675 1092 q 691 1135 689 1124 q 694 1154 693 1147 "},"Œ":{"ha":1222,"x_min":28,"x_max":1200,"o":"m 1200 115 l 1200 115 q 916 238 1033 118 q 799 524 799 358 q 799 605 799 564 q 799 686 799 646 l 1199 686 l 1199 801 l 799 801 l 799 931 l 1192 931 l 1192 1046 l 685 1046 l 685 1028 q 618 1041 651 1036 q 550 1046 585 1046 q 181 892 335 1046 q 28 524 28 739 q 181 153 28 307 q 550 0 335 0 q 728 31 644 0 q 879 117 811 63 q 1026 33 944 64 q 1199 0 1108 3 l 1200 115 m 797 199 l 797 199 q 683 138 746 160 q 550 115 619 115 q 263 235 382 115 q 143 524 143 356 q 263 811 143 692 q 550 931 382 931 q 619 925 585 931 q 685 908 653 919 l 685 801 l 617 801 l 617 686 l 685 686 q 685 605 685 646 q 685 524 685 564 q 715 349 685 432 q 797 199 744 265 "},"œ":{"ha":801,"x_min":22,"x_max":783,"o":"m 783 244 l 783 244 l 783 360 l 382 360 l 382 931 l 783 931 l 783 1044 l 268 1044 l 268 1032 q 236 1042 253 1039 q 203 1044 219 1044 q 75 992 128 1044 q 22 865 22 939 q 75 739 22 792 q 203 686 128 686 q 236 690 219 686 q 268 699 253 693 l 268 360 l 201 360 l 201 244 l 268 244 l 268 0 l 775 0 l 775 114 l 382 114 l 382 244 l 783 244 m 268 865 l 268 865 q 249 819 268 839 q 203 800 229 800 q 157 819 176 800 q 138 865 138 839 q 157 912 138 893 q 203 931 176 931 q 249 912 229 931 q 268 865 268 893 "},"—":{"ha":875,"x_min":-1,"x_max":889,"o":"m 889 426 l 889 426 l 889 542 l -1 542 l -1 426 l 889 426 "},"“":{"ha":325,"x_min":25,"x_max":325,"o":"m 164 888 l 164 888 q 169 903 168 894 q 171 919 171 911 q 161 957 172 939 q 131 985 150 975 q 119 989 125 988 q 107 992 113 990 l 131 1043 l 86 1064 q 72 1035 79 1050 q 60 1007 65 1021 q 46 978 53 993 q 32 950 39 964 q 29 942 31 946 q 26 935 28 939 q 26 927 26 931 q 25 919 25 924 q 36 881 25 899 q 67 853 47 863 q 82 847 74 849 q 99 846 90 846 q 136 856 118 844 q 164 888 154 868 m 317 888 l 317 888 q 322 903 321 894 q 324 919 324 911 q 314 957 325 939 q 283 985 303 975 q 272 989 278 988 q 260 992 265 990 l 283 1043 l 239 1064 q 225 1035 232 1050 q 213 1007 218 1021 q 199 978 206 993 q 185 950 192 964 q 182 942 183 946 q 179 935 181 939 q 178 927 179 931 q 178 919 178 924 q 189 881 178 899 q 219 853 200 863 q 235 847 226 849 q 251 846 243 846 q 289 856 271 844 q 317 888 307 868 "},"”":{"ha":325,"x_min":19,"x_max":319,"o":"m 160 958 l 160 958 q 163 966 161 963 q 165 974 164 969 q 166 981 165 978 q 167 989 167 985 q 156 1028 167 1010 q 125 1056 144 1046 q 110 1061 118 1060 q 93 1063 101 1063 q 56 1052 74 1064 q 28 1021 38 1040 q 22 1006 24 1014 q 21 989 21 997 q 31 951 19 969 q 61 924 42 933 q 74 919 68 921 q 85 917 79 918 l 61 865 l 106 844 q 119 873 113 858 q 133 901 126 888 q 146 930 139 915 q 160 958 153 944 m 313 958 l 313 958 q 315 966 314 963 q 318 974 317 969 q 319 981 318 978 q 319 989 319 985 q 308 1028 319 1010 q 278 1056 297 1046 q 263 1061 271 1060 q 246 1063 254 1063 q 208 1052 226 1064 q 181 1021 190 1040 q 175 1006 176 1014 q 174 989 174 997 q 183 951 172 969 q 214 924 194 933 q 226 919 221 921 q 238 917 232 918 l 214 865 l 258 844 q 272 873 265 858 q 286 901 279 888 q 299 930 292 915 q 313 958 306 944 "},"‘":{"ha":182,"x_min":25,"x_max":172,"o":"m 164 888 l 164 888 q 169 903 168 894 q 171 919 171 911 q 161 957 172 939 q 131 985 150 975 q 119 989 125 988 q 107 992 113 990 l 131 1043 l 86 1064 q 72 1035 79 1050 q 60 1007 65 1021 q 46 978 53 993 q 32 950 39 964 q 29 942 31 946 q 26 935 28 939 q 26 927 26 931 q 25 919 25 924 q 36 881 25 899 q 67 853 47 863 q 82 847 74 849 q 99 846 90 846 q 136 856 118 844 q 164 888 154 868 "},"’":{"ha":182,"x_min":19,"x_max":167,"o":"m 160 958 l 160 958 q 163 966 161 963 q 165 974 164 969 q 166 981 165 978 q 167 989 167 985 q 156 1028 167 1010 q 125 1056 144 1046 q 110 1061 118 1060 q 93 1063 101 1063 q 56 1052 74 1064 q 28 1021 38 1040 q 22 1006 24 1014 q 21 989 21 997 q 31 951 19 969 q 61 924 42 933 q 74 919 68 921 q 85 917 79 918 l 61 865 l 106 844 q 119 873 113 858 q 133 901 126 888 q 146 930 139 915 q 160 958 153 944 "},"÷":{"ha":694,"x_min":0,"x_max":0,"o":""},"◊":{"ha":694,"x_min":0,"x_max":0,"o":""},"ÿ":{"ha":657,"x_min":-1,"x_max":660,"o":"m 660 1046 l 660 1046 l 538 1046 l 329 472 l 119 1046 l -1 1046 l 272 296 l 272 3 l 386 3 l 386 296 l 660 1046 m 313 1101 l 313 1101 q 300 1133 313 1119 q 268 1146 288 1146 q 237 1133 250 1146 q 224 1101 224 1119 q 237 1069 224 1083 q 268 1056 250 1056 q 300 1069 288 1056 q 313 1101 313 1083 m 431 1101 l 431 1101 q 417 1133 431 1119 q 386 1146 404 1146 q 354 1133 368 1146 q 340 1101 340 1119 q 354 1069 340 1083 q 386 1056 368 1056 q 417 1069 404 1056 q 431 1101 431 1083 "},"Ÿ":{"ha":590,"x_min":4,"x_max":582,"o":"m 582 1046 l 582 1046 l 442 1046 l 293 842 l 144 1046 l 4 1046 l 236 725 l 236 0 l 350 0 l 350 725 l 582 1046 m 281 1088 l 281 1088 q 268 1119 281 1106 q 236 1132 256 1132 q 205 1119 218 1132 q 192 1088 192 1106 q 205 1056 192 1069 q 236 1042 218 1042 q 268 1056 256 1042 q 281 1088 281 1069 m 399 1088 l 399 1088 q 385 1119 399 1106 q 354 1132 372 1132 q 322 1119 336 1132 q 308 1088 308 1106 q 322 1056 308 1069 q 354 1042 336 1042 q 385 1056 372 1042 q 399 1088 399 1069 "},"∕":{"ha":694,"x_min":0,"x_max":0,"o":""},"¤":{"ha":753,"x_min":35,"x_max":718,"o":"m 718 967 l 718 967 q 620 1024 674 1003 q 507 1046 567 1046 q 261 935 358 1046 q 129 692 164 825 q 126 677 128 685 q 122 663 124 669 l 78 663 l 35 549 l 108 549 q 108 536 108 543 q 107 524 107 529 q 108 510 107 517 q 108 497 108 504 l 78 497 l 35 383 l 122 383 q 126 369 124 376 q 129 354 128 361 q 261 110 164 221 q 507 0 358 0 q 568 6 539 0 q 625 24 597 13 l 625 151 q 569 125 599 135 q 507 115 539 115 q 349 184 413 115 q 256 336 286 253 q 247 360 251 347 q 240 383 243 372 l 494 383 l 539 497 l 222 497 q 222 510 222 504 q 222 524 222 517 q 222 536 222 529 q 222 549 222 543 l 558 549 l 601 663 l 240 663 q 247 686 243 674 q 256 710 251 699 q 349 862 286 793 q 507 931 413 931 q 599 909 557 931 q 675 851 642 888 l 718 967 "},"‹":{"ha":263,"x_min":25,"x_max":240,"o":"m 240 354 l 240 354 l 240 486 l 157 569 l 240 653 l 240 785 l 25 569 l 240 354 "},"›":{"ha":263,"x_min":24,"x_max":239,"o":"m 239 569 l 239 569 l 24 785 l 24 653 l 107 569 l 24 486 l 24 354 l 239 569 "},"":{"ha":694,"x_min":0,"x_max":0,"o":""},"":{"ha":694,"x_min":0,"x_max":0,"o":""},"‡":{"ha":694,"x_min":0,"x_max":0,"o":""},"∙":{"ha":168,"x_min":8,"x_max":154,"o":"m 154 501 l 154 501 q 133 553 154 532 q 81 575 111 575 q 29 553 50 575 q 8 501 8 532 q 29 449 8 471 q 81 428 50 428 q 133 449 111 428 q 154 501 154 471 "},"‚":{"ha":182,"x_min":19,"x_max":167,"o":"m 160 28 l 160 28 q 163 35 161 32 q 165 43 164 39 q 166 51 165 47 q 167 58 167 54 q 156 97 167 79 q 125 125 144 115 q 110 131 118 129 q 93 132 101 132 q 56 122 74 133 q 28 90 38 110 q 22 75 24 83 q 21 58 21 67 q 31 21 19 39 q 61 -6 42 3 q 74 -10 68 -8 q 85 -14 79 -11 l 61 -65 l 106 -85 q 119 -56 113 -71 q 133 -28 126 -42 q 146 0 139 -14 q 160 28 153 14 "},"„":{"ha":331,"x_min":19,"x_max":319,"o":"m 160 28 l 160 28 q 163 35 161 32 q 165 43 164 39 q 166 51 165 47 q 167 58 167 54 q 156 97 167 79 q 125 125 144 115 q 110 131 118 129 q 93 132 101 132 q 56 122 74 133 q 28 90 38 110 q 22 75 24 83 q 21 58 21 67 q 31 21 19 39 q 61 -6 42 3 q 74 -10 68 -8 q 85 -14 79 -11 l 61 -65 l 106 -85 q 119 -56 113 -71 q 133 -28 126 -42 q 146 0 139 -14 q 160 28 153 14 m 313 28 l 313 28 q 315 35 314 32 q 318 43 317 39 q 319 51 318 47 q 319 58 319 54 q 308 97 319 79 q 278 125 297 115 q 263 131 271 129 q 246 132 254 132 q 208 122 226 133 q 181 90 190 110 q 175 75 176 83 q 174 58 174 67 q 183 21 172 39 q 214 -6 194 3 q 226 -10 221 -8 q 238 -14 232 -11 l 214 -65 l 258 -85 q 272 -56 265 -71 q 286 -28 279 -42 q 299 0 292 -14 q 313 28 306 14 "},"‰":{"ha":694,"x_min":0,"x_max":0,"o":""},"Â":{"ha":790,"x_min":38,"x_max":797,"o":"m 797 0 l 797 0 l 472 1042 l 364 1042 l 154 374 l 57 374 l 57 254 l 118 254 l 38 0 l 158 0 l 238 254 l 599 254 l 678 0 l 797 0 m 561 374 l 561 374 l 275 374 l 418 832 l 561 374 m 561 1090 l 561 1090 l 417 1143 l 272 1090 l 290 1043 l 417 1089 l 544 1043 l 561 1090 "},"Ê":{"ha":642,"x_min":29,"x_max":613,"o":"m 613 -1 l 613 -1 l 613 115 q 328 238 444 118 q 211 524 211 357 q 211 605 211 564 q 211 686 211 646 l 611 686 l 611 801 l 211 801 l 211 931 l 604 931 l 604 1046 l 96 1046 l 96 801 l 29 801 l 29 686 l 96 686 q 96 605 96 646 q 96 524 96 564 q 248 156 96 310 q 613 -1 400 3 m 513 1111 l 513 1111 l 368 1164 l 224 1111 l 242 1064 l 368 1110 l 496 1064 l 513 1111 "},"Á":{"ha":790,"x_min":38,"x_max":797,"o":"m 797 0 l 797 0 l 472 1042 l 364 1042 l 154 374 l 57 374 l 57 254 l 118 254 l 38 0 l 158 0 l 238 254 l 599 254 l 678 0 l 797 0 m 561 374 l 561 374 l 275 374 l 418 832 l 561 374 m 586 1100 l 586 1100 l 578 1150 l 365 1113 l 374 1063 l 586 1100 "},"Ë":{"ha":642,"x_min":29,"x_max":613,"o":"m 613 -1 l 613 -1 l 613 115 q 328 238 444 118 q 211 524 211 357 q 211 605 211 564 q 211 686 211 646 l 611 686 l 611 801 l 211 801 l 211 931 l 604 931 l 604 1046 l 96 1046 l 96 801 l 29 801 l 29 686 l 96 686 q 96 605 96 646 q 96 524 96 564 q 248 156 96 310 q 613 -1 400 3 m 340 1101 l 340 1101 q 328 1133 340 1119 q 296 1146 315 1146 q 265 1133 278 1146 q 251 1101 251 1119 q 265 1069 251 1083 q 296 1056 278 1056 q 328 1069 315 1056 q 340 1101 340 1083 m 458 1101 l 458 1101 q 445 1133 458 1119 q 414 1146 432 1146 q 382 1133 396 1146 q 368 1101 368 1119 q 382 1069 368 1083 q 414 1056 396 1056 q 445 1069 432 1056 q 458 1101 458 1083 "},"È":{"ha":642,"x_min":29,"x_max":613,"o":"m 613 -1 l 613 -1 l 613 115 q 328 238 444 118 q 211 524 211 357 q 211 605 211 564 q 211 686 211 646 l 611 686 l 611 801 l 211 801 l 211 931 l 604 931 l 604 1046 l 96 1046 l 96 801 l 29 801 l 29 686 l 96 686 q 96 605 96 646 q 96 524 96 564 q 248 156 96 310 q 613 -1 400 3 m 458 1118 l 458 1118 l 246 1156 l 238 1106 l 450 1068 l 458 1118 "},"Í":{"ha":157,"x_min":21,"x_max":263,"o":"m 135 0 l 135 0 l 135 1046 l 21 1046 l 21 0 l 135 0 m 263 1092 l 263 1092 l 254 1142 l 42 1104 l 50 1054 l 263 1092 "},"Î":{"ha":157,"x_min":-68,"x_max":221,"o":"m 135 0 l 135 0 l 135 1046 l 21 1046 l 21 0 l 135 0 m 221 1083 l 221 1083 l 76 1136 l -68 1083 l -50 1036 l 76 1082 l 204 1036 l 221 1083 "},"Ï":{"ha":157,"x_min":-25,"x_max":181,"o":"m 135 0 l 135 0 l 135 1046 l 21 1046 l 21 0 l 135 0 m 63 1101 l 63 1101 q 50 1133 63 1119 q 18 1146 38 1146 q -12 1133 0 1146 q -25 1101 -25 1119 q -12 1069 -25 1083 q 18 1056 0 1056 q 50 1069 38 1056 q 63 1101 63 1083 m 181 1101 l 181 1101 q 167 1133 181 1119 q 136 1146 154 1146 q 104 1133 118 1146 q 90 1101 90 1119 q 104 1069 90 1083 q 136 1056 118 1056 q 167 1069 154 1056 q 181 1101 181 1083 "},"Ì":{"ha":157,"x_min":-110,"x_max":135,"o":"m 135 0 l 135 0 l 135 1046 l 21 1046 l 21 0 l 135 0 m 111 1118 l 111 1118 l -101 1156 l -110 1106 l 103 1068 l 111 1118 "},"Ó":{"ha":1083,"x_min":22,"x_max":1067,"o":"m 1067 524 l 1067 524 q 913 892 1067 739 q 544 1046 760 1046 q 176 892 329 1046 q 22 524 22 739 q 176 153 22 307 q 544 0 329 0 q 913 153 760 0 q 1067 524 1067 307 m 953 524 l 953 524 q 833 235 953 356 q 544 115 714 115 q 256 235 376 115 q 136 524 136 356 q 256 811 136 692 q 544 931 376 931 q 833 811 714 931 q 953 524 953 692 m 763 1092 l 763 1092 l 754 1142 l 542 1104 l 550 1054 l 763 1092 "},"Ô":{"ha":1083,"x_min":22,"x_max":1067,"o":"m 1067 524 l 1067 524 q 913 892 1067 739 q 544 1046 760 1046 q 176 892 329 1046 q 22 524 22 739 q 176 153 22 307 q 544 0 329 0 q 913 153 760 0 q 1067 524 1067 307 m 953 524 l 953 524 q 833 235 953 356 q 544 115 714 115 q 256 235 376 115 q 136 524 136 356 q 256 811 136 692 q 544 931 376 931 q 833 811 714 931 q 953 524 953 692 m 686 1093 l 686 1093 l 542 1146 l 397 1093 l 415 1046 l 542 1092 l 669 1046 l 686 1093 "},"":{"ha":417,"x_min":0,"x_max":0,"o":""},"Ò":{"ha":417,"x_min":0,"x_max":0,"o":""},"Ú":{"ha":596,"x_min":26,"x_max":568,"o":"m 568 271 l 568 271 q 568 659 568 465 q 568 1046 568 853 l 454 1046 l 454 271 q 408 161 454 207 q 297 115 363 115 q 188 161 233 115 q 142 271 142 207 q 142 659 142 465 q 142 1046 142 853 l 26 1046 l 26 271 q 106 80 26 160 q 297 0 186 0 q 489 80 410 0 q 568 271 568 160 m 457 1092 l 457 1092 l 449 1142 l 236 1104 l 244 1054 l 457 1092 "},"Û":{"ha":596,"x_min":26,"x_max":568,"o":"m 568 271 l 568 271 q 568 659 568 465 q 568 1046 568 853 l 454 1046 l 454 271 q 408 161 454 207 q 297 115 363 115 q 188 161 233 115 q 142 271 142 207 q 142 659 142 465 q 142 1046 142 853 l 26 1046 l 26 271 q 106 80 26 160 q 297 0 186 0 q 489 80 410 0 q 568 271 568 160 m 443 1083 l 443 1083 l 299 1136 l 154 1083 l 172 1036 l 299 1082 l 426 1036 l 443 1083 "},"Ù":{"ha":596,"x_min":26,"x_max":568,"o":"m 568 271 l 568 271 q 568 659 568 465 q 568 1046 568 853 l 454 1046 l 454 271 q 408 161 454 207 q 297 115 363 115 q 188 161 233 115 q 142 271 142 207 q 142 659 142 465 q 142 1046 142 853 l 26 1046 l 26 271 q 106 80 26 160 q 297 0 186 0 q 489 80 410 0 q 568 271 568 160 m 389 1090 l 389 1090 l 176 1128 l 168 1078 l 381 1040 l 389 1090 "},"ı":{"ha":694,"x_min":0,"x_max":0,"o":""},"˜":{"ha":319,"x_min":15,"x_max":304,"o":"m 304 1083 l 304 1083 l 160 1136 l 15 1083 l 33 1036 l 160 1082 l 288 1036 l 304 1083 "},"ˆ":{"ha":319,"x_min":14,"x_max":306,"o":"m 306 1140 l 306 1140 l 253 1140 q 238 1108 249 1118 q 214 1097 228 1097 q 211 1097 213 1097 q 210 1097 210 1097 q 194 1103 203 1099 q 175 1114 186 1107 q 153 1126 163 1121 q 133 1133 143 1132 q 122 1137 128 1136 q 108 1138 115 1138 q 91 1136 106 1138 q 60 1125 76 1135 q 33 1097 46 1115 q 14 1047 19 1079 l 67 1047 q 76 1071 69 1063 q 90 1083 83 1079 q 100 1086 96 1085 q 108 1088 104 1088 q 113 1088 111 1088 q 117 1088 114 1088 q 131 1081 122 1086 q 157 1065 139 1076 q 187 1052 172 1057 q 217 1047 201 1047 q 268 1063 250 1047 q 294 1097 286 1078 q 302 1122 300 1110 q 306 1140 304 1133 "},"ˉ":{"ha":694,"x_min":0,"x_max":0,"o":""},"˘":{"ha":694,"x_min":0,"x_max":0,"o":""},"˙":{"ha":694,"x_min":0,"x_max":0,"o":""},"˚":{"ha":319,"x_min":90,"x_max":229,"o":"m 229 1111 l 229 1111 q 210 1160 229 1140 q 160 1179 192 1179 q 109 1159 128 1179 q 90 1111 90 1139 q 92 1097 90 1106 q 97 1079 93 1089 q 119 1053 104 1065 q 160 1042 133 1042 q 210 1061 192 1042 q 229 1111 229 1081 m 188 1111 l 188 1111 q 181 1091 188 1100 q 160 1082 174 1082 q 158 1082 158 1082 q 156 1082 157 1082 q 139 1090 147 1083 q 131 1111 131 1097 q 139 1131 131 1122 q 156 1140 147 1139 q 158 1140 157 1140 q 160 1140 158 1140 q 179 1132 171 1140 q 188 1111 188 1124 "},"¸":{"ha":182,"x_min":17,"x_max":174,"o":"m 174 36 l 174 36 l 124 64 l 50 -65 q 72 -78 61 -72 q 92 -90 82 -85 q 104 -103 99 -96 q 111 -118 110 -110 q 112 -121 111 -119 q 113 -124 113 -122 q 113 -125 113 -124 q 113 -128 113 -126 q 99 -158 113 -146 q 69 -171 86 -171 q 58 -169 64 -171 q 47 -167 53 -168 l 17 -214 q 30 -220 24 -218 q 43 -225 36 -222 q 56 -227 49 -226 q 68 -228 63 -228 q 118 -217 94 -229 q 156 -181 142 -204 q 166 -156 163 -168 q 169 -129 169 -143 q 158 -83 169 -104 q 126 -47 147 -61 l 174 36 "},"ʺ":{"ha":694,"x_min":0,"x_max":0,"o":""},"˛":{"ha":694,"x_min":0,"x_max":0,"o":""},"ˇ":{"ha":319,"x_min":15,"x_max":304,"o":"m 304 1067 l 304 1067 l 288 1114 l 160 1068 l 33 1114 l 15 1067 l 160 1014 l 304 1067 "},"Ł":{"ha":694,"x_min":0,"x_max":0,"o":""},"ł":{"ha":694,"x_min":0,"x_max":0,"o":""},"Š":{"ha":694,"x_min":0,"x_max":0,"o":""},"š":{"ha":694,"x_min":0,"x_max":0,"o":""},"Ž":{"ha":694,"x_min":0,"x_max":0,"o":""},"ž":{"ha":694,"x_min":0,"x_max":0,"o":""},"¦":{"ha":694,"x_min":0,"x_max":0,"o":""},"Ð":{"ha":767,"x_min":35,"x_max":732,"o":"m 732 524 l 732 524 q 581 889 732 736 q 218 1046 431 1042 q 190 1046 204 1046 q 160 1046 175 1046 l 160 360 l 35 360 l 35 246 l 160 246 l 160 0 q 190 0 175 0 q 218 0 204 0 q 581 157 431 4 q 732 524 732 310 m 617 524 l 617 524 q 519 258 617 374 q 274 119 422 143 l 274 246 l 401 246 l 401 360 l 274 360 l 274 926 q 519 788 422 903 q 617 524 617 672 "},"ð":{"ha":767,"x_min":35,"x_max":732,"o":"m 732 521 l 732 521 q 581 888 732 735 q 218 1044 431 1040 q 190 1044 204 1044 q 160 1044 175 1044 l 160 799 l 35 799 l 35 685 l 160 685 l 160 0 q 190 0 175 0 q 218 0 204 0 q 581 156 431 3 q 732 521 732 308 m 617 521 l 617 521 q 519 257 617 372 q 274 118 422 142 l 274 685 l 401 685 l 401 799 l 274 799 l 274 925 q 519 786 422 901 q 617 521 617 671 "},"Ý":{"ha":417,"x_min":0,"x_max":0,"o":""},"ý":{"ha":417,"x_min":0,"x_max":0,"o":""},"Þ":{"ha":535,"x_min":24,"x_max":510,"o":"m 510 551 l 510 551 q 402 824 510 708 q 139 951 294 940 l 139 1046 l 24 1046 l 24 0 l 139 0 l 139 153 q 403 280 296 164 q 510 551 510 396 m 396 551 l 396 551 q 322 360 396 442 q 139 268 247 279 l 139 836 q 322 743 249 825 q 396 551 396 661 "},"þ":{"ha":535,"x_min":24,"x_max":510,"o":"m 510 493 l 510 493 q 403 765 510 650 q 139 892 296 881 l 139 1044 l 24 1044 l 24 -1 l 139 -1 l 139 93 q 402 220 294 104 q 510 493 510 336 m 396 493 l 396 493 q 322 301 396 383 q 139 208 249 219 l 139 776 q 322 685 247 767 q 396 493 396 603 "},"−":{"ha":694,"x_min":0,"x_max":0,"o":""},"×":{"ha":694,"x_min":0,"x_max":0,"o":""},"¹":{"ha":694,"x_min":0,"x_max":0,"o":""},"²":{"ha":694,"x_min":0,"x_max":0,"o":""},"³":{"ha":694,"x_min":0,"x_max":0,"o":""},"½":{"ha":694,"x_min":0,"x_max":0,"o":""},"¼":{"ha":694,"x_min":0,"x_max":0,"o":""},"¾":{"ha":694,"x_min":0,"x_max":0,"o":""},"₣":{"ha":694,"x_min":0,"x_max":0,"o":""},"Ğ":{"ha":417,"x_min":0,"x_max":0,"o":""},"ğ":{"ha":417,"x_min":0,"x_max":0,"o":""},"İ":{"ha":417,"x_min":0,"x_max":0,"o":""},"Ş":{"ha":417,"x_min":0,"x_max":0,"o":""},"ş":{"ha":417,"x_min":0,"x_max":0,"o":""},"Ć":{"ha":417,"x_min":0,"x_max":0,"o":""},"ć":{"ha":417,"x_min":0,"x_max":0,"o":""},"Č":{"ha":417,"x_min":0,"x_max":0,"o":""},"č":{"ha":417,"x_min":0,"x_max":0,"o":""},"đ":{"ha":417,"x_min":0,"x_max":0,"o":""},"→":{"ha":694,"x_min":0,"x_max":0,"o":""},"⌂":{"ha":417,"x_min":0,"x_max":0,"o":""},"–":{"ha":586,"x_min":-1,"x_max":596,"o":"m 596 426 l 596 426 l 596 542 l -1 542 l -1 426 l 596 426 "},"­":{"ha":694,"x_min":0,"x_max":0,"o":""},"■":{"ha":694,"x_min":0,"x_max":0,"o":""},"•":{"ha":281,"x_min":24,"x_max":267,"o":"m 267 539 l 267 539 q 231 626 267 590 q 144 663 194 663 q 58 626 93 663 q 24 539 24 590 q 58 453 24 489 q 144 417 93 417 q 231 453 194 417 q 267 539 267 489 "},"¯":{"ha":417,"x_min":0,"x_max":0,"o":""},"°":{"ha":694,"x_min":0,"x_max":0,"o":""},"·":{"ha":417,"x_min":0,"x_max":0,"o":""},"‗":{"ha":694,"x_min":0,"x_max":0,"o":""},"‼":{"ha":694,"x_min":0,"x_max":0,"o":""},"ⁿ":{"ha":694,"x_min":0,"x_max":0,"o":""},"₧":{"ha":694,"x_min":0,"x_max":0,"o":""},"Γ":{"ha":694,"x_min":0,"x_max":0,"o":""},"Θ":{"ha":694,"x_min":0,"x_max":0,"o":""},"Φ":{"ha":694,"x_min":0,"x_max":0,"o":""},"α":{"ha":694,"x_min":0,"x_max":0,"o":""},"δ":{"ha":694,"x_min":0,"x_max":0,"o":""},"ε":{"ha":694,"x_min":0,"x_max":0,"o":""},"σ":{"ha":417,"x_min":0,"x_max":0,"o":""},"τ":{"ha":694,"x_min":0,"x_max":0,"o":""},"φ":{"ha":417,"x_min":0,"x_max":0,"o":""},"←":{"ha":417,"x_min":0,"x_max":0,"o":""},"↑":{"ha":417,"x_min":0,"x_max":0,"o":""},"↓":{"ha":417,"x_min":0,"x_max":0,"o":""},"↔":{"ha":417,"x_min":0,"x_max":0,"o":""},"↕":{"ha":417,"x_min":0,"x_max":0,"o":""},"↨":{"ha":417,"x_min":0,"x_max":0,"o":""},"∟":{"ha":417,"x_min":0,"x_max":0,"o":""},"∩":{"ha":417,"x_min":0,"x_max":0,"o":""},"≡":{"ha":417,"x_min":0,"x_max":0,"o":""},"⌐":{"ha":417,"x_min":0,"x_max":0,"o":""},"⌠":{"ha":417,"x_min":0,"x_max":0,"o":""},"⌡":{"ha":417,"x_min":0,"x_max":0,"o":""},"▬":{"ha":417,"x_min":0,"x_max":0,"o":""},"○":{"ha":417,"x_min":0,"x_max":0,"o":""},"▲":{"ha":417,"x_min":0,"x_max":0,"o":""},"►":{"ha":417,"x_min":0,"x_max":0,"o":""},"▼":{"ha":417,"x_min":0,"x_max":0,"o":""},"◄":{"ha":417,"x_min":0,"x_max":0,"o":""},"◘":{"ha":417,"x_min":0,"x_max":0,"o":""},"◙":{"ha":417,"x_min":0,"x_max":0,"o":""},"Ř":{"ha":417,"x_min":0,"x_max":0,"o":""},"▀":{"ha":417,"x_min":0,"x_max":0,"o":""},"▄":{"ha":417,"x_min":0,"x_max":0,"o":""},"█":{"ha":417,"x_min":0,"x_max":0,"o":""},"▌":{"ha":417,"x_min":0,"x_max":0,"o":""},"▐":{"ha":417,"x_min":0,"x_max":0,"o":""},"░":{"ha":417,"x_min":0,"x_max":0,"o":""},"▒":{"ha":417,"x_min":0,"x_max":0,"o":""},"▓":{"ha":417,"x_min":0,"x_max":0,"o":""},"☺":{"ha":417,"x_min":0,"x_max":0,"o":""},"☻":{"ha":417,"x_min":0,"x_max":0,"o":""},"☼":{"ha":417,"x_min":0,"x_max":0,"o":""},"♀":{"ha":417,"x_min":0,"x_max":0,"o":""},"♂":{"ha":417,"x_min":0,"x_max":0,"o":""},"♠":{"ha":417,"x_min":0,"x_max":0,"o":""},"♣":{"ha":417,"x_min":0,"x_max":0,"o":""},"♥":{"ha":417,"x_min":0,"x_max":0,"o":""},"♦":{"ha":417,"x_min":0,"x_max":0,"o":""},"♪":{"ha":417,"x_min":0,"x_max":0,"o":""},"♫":{"ha":417,"x_min":0,"x_max":0,"o":""},"Ă":{"ha":417,"x_min":0,"x_max":0,"o":""},"ă":{"ha":417,"x_min":0,"x_max":0,"o":""},"Ą":{"ha":417,"x_min":0,"x_max":0,"o":""},"ą":{"ha":417,"x_min":0,"x_max":0,"o":""},"Ď":{"ha":417,"x_min":0,"x_max":0,"o":""},"ď":{"ha":417,"x_min":0,"x_max":0,"o":""},"Đ":{"ha":417,"x_min":0,"x_max":0,"o":""},"Ę":{"ha":417,"x_min":0,"x_max":0,"o":""},"ę":{"ha":417,"x_min":0,"x_max":0,"o":""},"Ě":{"ha":417,"x_min":0,"x_max":0,"o":""},"ě":{"ha":417,"x_min":0,"x_max":0,"o":""},"Ĺ":{"ha":417,"x_min":0,"x_max":0,"o":""},"ĺ":{"ha":417,"x_min":0,"x_max":0,"o":""},"Ľ":{"ha":417,"x_min":0,"x_max":0,"o":""},"ľ":{"ha":417,"x_min":0,"x_max":0,"o":""},"Ń":{"ha":417,"x_min":0,"x_max":0,"o":""},"ń":{"ha":417,"x_min":0,"x_max":0,"o":""},"Ň":{"ha":417,"x_min":0,"x_max":0,"o":""},"ň":{"ha":417,"x_min":0,"x_max":0,"o":""},"Ő":{"ha":417,"x_min":0,"x_max":0,"o":""},"ő":{"ha":417,"x_min":0,"x_max":0,"o":""},"Ŕ":{"ha":417,"x_min":0,"x_max":0,"o":""},"ŕ":{"ha":417,"x_min":0,"x_max":0,"o":""},"ř":{"ha":417,"x_min":0,"x_max":0,"o":""},"Ś":{"ha":417,"x_min":0,"x_max":0,"o":""},"ś":{"ha":417,"x_min":0,"x_max":0,"o":""},"Ţ":{"ha":417,"x_min":0,"x_max":0,"o":""},"ţ":{"ha":417,"x_min":0,"x_max":0,"o":""},"Ť":{"ha":417,"x_min":0,"x_max":0,"o":""},"ť":{"ha":417,"x_min":0,"x_max":0,"o":""},"Ů":{"ha":417,"x_min":0,"x_max":0,"o":""},"ů":{"ha":417,"x_min":0,"x_max":0,"o":""},"ű":{"ha":417,"x_min":0,"x_max":0,"o":""},"Ű":{"ha":417,"x_min":0,"x_max":0,"o":""},"Ź":{"ha":417,"x_min":0,"x_max":0,"o":""},"ź":{"ha":417,"x_min":0,"x_max":0,"o":""},"Ż":{"ha":417,"x_min":0,"x_max":0,"o":""},"ż":{"ha":417,"x_min":0,"x_max":0,"o":""},"Ŀ":{"ha":417,"x_min":0,"x_max":0,"o":""},"ŀ":{"ha":417,"x_min":0,"x_max":0,"o":""},"─":{"ha":417,"x_min":0,"x_max":0,"o":""},"│":{"ha":417,"x_min":0,"x_max":0,"o":""},"┌":{"ha":417,"x_min":0,"x_max":0,"o":""},"┐":{"ha":417,"x_min":0,"x_max":0,"o":""},"└":{"ha":417,"x_min":0,"x_max":0,"o":""},"┘":{"ha":417,"x_min":0,"x_max":0,"o":""},"├":{"ha":417,"x_min":0,"x_max":0,"o":""},"┤":{"ha":417,"x_min":0,"x_max":0,"o":""},"┬":{"ha":417,"x_min":0,"x_max":0,"o":""},"┴":{"ha":417,"x_min":0,"x_max":0,"o":""},"┼":{"ha":417,"x_min":0,"x_max":0,"o":""},"═":{"ha":417,"x_min":0,"x_max":0,"o":""},"║":{"ha":417,"x_min":0,"x_max":0,"o":""},"╒":{"ha":417,"x_min":0,"x_max":0,"o":""},"╓":{"ha":417,"x_min":0,"x_max":0,"o":""},"╔":{"ha":417,"x_min":0,"x_max":0,"o":""},"╕":{"ha":417,"x_min":0,"x_max":0,"o":""},"╖":{"ha":417,"x_min":0,"x_max":0,"o":""},"╗":{"ha":417,"x_min":0,"x_max":0,"o":""},"╘":{"ha":417,"x_min":0,"x_max":0,"o":""},"╙":{"ha":417,"x_min":0,"x_max":0,"o":""},"╚":{"ha":417,"x_min":0,"x_max":0,"o":""},"╛":{"ha":417,"x_min":0,"x_max":0,"o":""},"╜":{"ha":417,"x_min":0,"x_max":0,"o":""},"╝":{"ha":417,"x_min":0,"x_max":0,"o":""},"╞":{"ha":417,"x_min":0,"x_max":0,"o":""},"╟":{"ha":417,"x_min":0,"x_max":0,"o":""},"╠":{"ha":417,"x_min":0,"x_max":0,"o":""},"╡":{"ha":417,"x_min":0,"x_max":0,"o":""},"╢":{"ha":417,"x_min":0,"x_max":0,"o":""},"╣":{"ha":417,"x_min":0,"x_max":0,"o":""},"╤":{"ha":417,"x_min":0,"x_max":0,"o":""},"╥":{"ha":417,"x_min":0,"x_max":0,"o":""},"╦":{"ha":417,"x_min":0,"x_max":0,"o":""},"╧":{"ha":417,"x_min":0,"x_max":0,"o":""},"╨":{"ha":417,"x_min":0,"x_max":0,"o":""},"╩":{"ha":417,"x_min":0,"x_max":0,"o":""},"╪":{"ha":417,"x_min":0,"x_max":0,"o":""},"╫":{"ha":417,"x_min":0,"x_max":0,"o":""},"╬":{"ha":417,"x_min":0,"x_max":0,"o":""}}}
